<?xml version="1.0" encoding="UTF-8" standalone="no"?>
<!-- Created with Inkscape (http://www.inkscape.org/) -->

<svg
   xmlns:dc="http://purl.org/dc/elements/1.1/"
   xmlns:cc="http://creativecommons.org/ns#"
   xmlns:rdf="http://www.w3.org/1999/02/22-rdf-syntax-ns#"
   xmlns:svg="http://www.w3.org/2000/svg"
   xmlns="http://www.w3.org/2000/svg"
   xmlns:sodipodi="http://sodipodi.sourceforge.net/DTD/sodipodi-0.dtd"
   xmlns:inkscape="http://www.inkscape.org/namespaces/inkscape"
   width="33.924488mm"
   height="89.522957mm"
   viewBox="0 0 120.20488 317.20734"
   id="svg4171"
   version="1.1"
   inkscape:version="0.91 r13725"
   sodipodi:docname="cactus-5.svg">
  <defs
     id="defs4173" />
  <sodipodi:namedview
     id="base"
     pagecolor="#ffffff"
     bordercolor="#666666"
     borderopacity="1.0"
     inkscape:pageopacity="0.0"
     inkscape:pageshadow="2"
     inkscape:zoom="0.35"
     inkscape:cx="-762.45782"
     inkscape:cy="3.9991324"
     inkscape:document-units="px"
     inkscape:current-layer="svg4171"
     showgrid="false"
     fit-margin-top="0"
     fit-margin-left="0"
     fit-margin-right="0"
     fit-margin-bottom="0"
     inkscape:window-width="1366"
     inkscape:window-height="705"
     inkscape:window-x="-8"
     inkscape:window-y="-8"
     inkscape:window-maximized="1" />
  <metadata
     id="metadata4176">
    <rdf:RDF>
      <cc:Work
         rdf:about="">
        <dc:format>image/svg+xml</dc:format>
        <dc:type
           rdf:resource="http://purl.org/dc/dcmitype/StillImage" />
        <dc:title />
      </cc:Work>
    </rdf:RDF>
  </metadata>
  <path
     inkscape:connector-curvature="0"
     d="m 43.40732,267.12196 0,-50.08537 -10.01708,0 -10.01707,0 0,-3.33902 0,-3.33903 -3.33902,0 -3.33903,0 0,-3.33902 0,-3.33903 -5.00854,0 -5.00853,0 0,-3.33902 0,-3.33903 -3.33903,0 -3.33902,0 0,-45.07683 0,-45.07683 3.33902,0 3.33903,0 0,-3.33902 0,-3.33903 8.34756,0 8.34756,0 0,3.33903 0,3.33902 3.33902,0 3.33903,0 0,41.73781 0,41.73781 6.67805,0 6.67805,0 0,-91.823183 0,-91.8231796 3.33902,0 3.33902,0 0,-3.33902 0,-3.3390199853145 10.01708,0 10.01707,0 0,3.3390199853145 0,3.33902 3.33903,0 3.33902,0 0,50.0853696 0,50.085373 11.686591,0 11.686579,0 0,-31.720733 0,-31.72074 3.33903,0 3.33902,0 0,-3.33902 0,-3.33903 3.33903,0 3.33902,0 0,3.33903 0,3.33902 3.33903,0 3.33902,0 0,35.05976 0,35.059763 -3.33902,0 -3.33903,0 0,3.33902 0,3.33903 -3.33902,0 -3.33903,0 0,3.33902 0,3.33903 -15.025609,0 -15.025611,0 0,95.1622 0,95.1622 -16.69512,0 -16.69512,0 z"
     id="path4149" />
</svg>
