# Blender v2.79 (sub 0) OBJ File: 'svg-extruder2.blend'
# www.blender.org
mtllib cactus-2.mtl
o Curve_CUpath4141.001
v -0.109966 0.010309 0.000000
v -0.109966 0.020619 0.000000
v -0.089343 0.020619 0.000000
v -0.068720 0.020619 0.000000
v -0.068720 0.175258 0.000000
v -0.068720 0.329897 0.000000
v -0.120277 0.329897 0.000000
v -0.171835 0.329897 0.000000
v -0.171835 0.340206 0.000000
v -0.171835 0.350515 0.000000
v -0.182146 0.350515 0.000000
v -0.192458 0.350515 0.000000
v -0.192458 0.360825 0.000000
v -0.192458 0.371134 0.000000
v -0.202769 0.371134 0.000000
v -0.213081 0.371134 0.000000
v -0.213081 0.381443 0.000000
v -0.213081 0.391753 0.000000
v -0.228548 0.391753 0.000000
v -0.244015 0.391753 0.000000
v -0.244015 0.556701 0.000000
v -0.244015 0.721649 0.000000
v -0.228548 0.721649 0.000000
v -0.213081 0.721649 0.000000
v -0.213081 0.731959 0.000000
v -0.213081 0.742268 0.000000
v -0.182146 0.742268 0.000000
v -0.151212 0.742268 0.000000
v -0.151212 0.731959 0.000000
v -0.151212 0.721649 0.000000
v -0.140900 0.721649 0.000000
v -0.130589 0.721649 0.000000
v -0.130589 0.577320 0.000000
v -0.130589 0.432990 0.000000
v -0.099655 0.432990 0.000000
v -0.068720 0.432990 0.000000
v -0.068720 0.706186 0.000000
v -0.068720 0.979382 0.000000
v -0.058409 0.979382 0.000000
v -0.048097 0.979382 0.000000
v -0.048097 0.989691 0.000000
v -0.048097 1.000000 0.000000
v 0.008616 1.000000 0.000000
v 0.065329 1.000000 0.000000
v 0.065329 0.989691 0.000000
v 0.065329 0.979382 0.000000
v 0.075640 0.979382 0.000000
v 0.085952 0.979382 0.000000
v 0.085952 0.706186 0.000000
v 0.085952 0.432990 0.000000
v 0.116886 0.432990 0.000000
v 0.147820 0.432990 0.000000
v 0.147820 0.597938 0.000000
v 0.147820 0.762887 0.000000
v 0.158132 0.762887 0.000000
v 0.168443 0.762887 0.000000
v 0.168443 0.773196 0.000000
v 0.168443 0.783505 0.000000
v 0.189066 0.783505 0.000000
v 0.209689 0.783505 0.000000
v 0.209689 0.773196 0.000000
v 0.209689 0.762887 0.000000
v 0.220001 0.762887 0.000000
v 0.230312 0.762887 0.000000
v 0.230312 0.597938 0.000000
v 0.230312 0.432990 0.000000
v 0.220001 0.432990 0.000000
v 0.209689 0.432990 0.000000
v 0.209689 0.422680 0.000000
v 0.209689 0.412371 0.000000
v 0.199378 0.412371 0.000000
v 0.189066 0.412371 0.000000
v 0.189066 0.402062 0.000000
v 0.189066 0.391753 0.000000
v 0.178755 0.391753 0.000000
v 0.168443 0.391753 0.000000
v 0.168443 0.381443 0.000000
v 0.168443 0.371134 0.000000
v 0.127198 0.371134 0.000000
v 0.085952 0.371134 0.000000
v 0.085952 0.185567 0.000000
v 0.085952 0.000000 0.000000
v -0.012007 0.000000 0.000000
v -0.109966 0.000000 0.000000
v -0.109966 0.010309 -0.050000
v -0.109966 0.020619 -0.050000
v -0.089343 0.020619 -0.050000
v -0.068720 0.020619 -0.050000
v -0.068720 0.175258 -0.050000
v -0.068720 0.329897 -0.050000
v -0.120277 0.329897 -0.050000
v -0.171835 0.329897 -0.050000
v -0.171835 0.340206 -0.050000
v -0.171835 0.350515 -0.050000
v -0.182146 0.350515 -0.050000
v -0.192458 0.350515 -0.050000
v -0.192458 0.360825 -0.050000
v -0.192458 0.371134 -0.050000
v -0.202769 0.371134 -0.050000
v -0.213081 0.371134 -0.050000
v -0.213081 0.381443 -0.050000
v -0.213081 0.391753 -0.050000
v -0.228548 0.391753 -0.050000
v -0.244015 0.391753 -0.050000
v -0.244015 0.556701 -0.050000
v -0.244015 0.721649 -0.050000
v -0.228548 0.721649 -0.050000
v -0.213081 0.721649 -0.050000
v -0.213081 0.731959 -0.050000
v -0.213081 0.742268 -0.050000
v -0.182146 0.742268 -0.050000
v -0.151212 0.742268 -0.050000
v -0.151212 0.731959 -0.050000
v -0.151212 0.721649 -0.050000
v -0.140900 0.721649 -0.050000
v -0.130589 0.721649 -0.050000
v -0.130589 0.577320 -0.050000
v -0.130589 0.432990 -0.050000
v -0.099655 0.432990 -0.050000
v -0.068720 0.432990 -0.050000
v -0.068720 0.706186 -0.050000
v -0.068720 0.979382 -0.050000
v -0.058409 0.979382 -0.050000
v -0.048097 0.979382 -0.050000
v -0.048097 0.989691 -0.050000
v -0.048097 1.000000 -0.050000
v 0.008616 1.000000 -0.050000
v 0.065329 1.000000 -0.050000
v 0.065329 0.989691 -0.050000
v 0.065329 0.979382 -0.050000
v 0.075640 0.979382 -0.050000
v 0.085952 0.979382 -0.050000
v 0.085952 0.706186 -0.050000
v 0.085952 0.432990 -0.050000
v 0.116886 0.432990 -0.050000
v 0.147820 0.432990 -0.050000
v 0.147820 0.597938 -0.050000
v 0.147820 0.762887 -0.050000
v 0.158132 0.762887 -0.050000
v 0.168443 0.762887 -0.050000
v 0.168443 0.773196 -0.050000
v 0.168443 0.783505 -0.050000
v 0.189066 0.783505 -0.050000
v 0.209689 0.783505 -0.050000
v 0.209689 0.773196 -0.050000
v 0.209689 0.762887 -0.050000
v 0.220001 0.762887 -0.050000
v 0.230312 0.762887 -0.050000
v 0.230312 0.597938 -0.050000
v 0.230312 0.432990 -0.050000
v 0.220001 0.432990 -0.050000
v 0.209689 0.432990 -0.050000
v 0.209689 0.422680 -0.050000
v 0.209689 0.412371 -0.050000
v 0.199378 0.412371 -0.050000
v 0.189066 0.412371 -0.050000
v 0.189066 0.402062 -0.050000
v 0.189066 0.391753 -0.050000
v 0.178755 0.391753 -0.050000
v 0.168443 0.391753 -0.050000
v 0.168443 0.381443 -0.050000
v 0.168443 0.371134 -0.050000
v 0.127198 0.371134 -0.050000
v 0.085952 0.371134 -0.050000
v 0.085952 0.185567 -0.050000
v 0.085952 0.000000 -0.050000
v -0.012007 0.000000 -0.050000
v -0.109966 0.000000 -0.050000
v -0.213081 0.742268 0.000000
v -0.213081 0.742268 0.000000
v -0.182146 0.742268 0.000000
v -0.192458 0.360825 0.000000
v -0.192458 0.371134 0.000000
v -0.192458 0.371134 0.000000
v 0.220001 0.432990 0.000000
v 0.209689 0.432990 0.000000
v 0.209689 0.432990 0.000000
v 0.220001 0.762887 0.000000
v 0.230312 0.762887 0.000000
v 0.230312 0.762887 0.000000
v -0.202769 0.371134 0.000000
v -0.213081 0.371134 0.000000
v -0.213081 0.371134 0.000000
v 0.147820 0.432990 0.000000
v 0.147820 0.432990 0.000000
v 0.147820 0.597938 0.000000
v -0.151212 0.721649 0.000000
v -0.151212 0.721649 0.000000
v -0.140900 0.721649 0.000000
v -0.068720 0.706186 0.000000
v -0.068720 0.979382 0.000000
v -0.068720 0.979382 0.000000
v 0.085952 0.432990 0.000000
v 0.085952 0.432990 0.000000
v 0.116886 0.432990 0.000000
v -0.244015 0.556701 0.000000
v -0.244015 0.721649 0.000000
v -0.244015 0.721649 0.000000
v -0.058409 0.979382 0.000000
v -0.048097 0.979382 0.000000
v -0.048097 0.979382 0.000000
v 0.168443 0.371134 0.000000
v 0.168443 0.371134 0.000000
v 0.127198 0.371134 0.000000
v -0.228548 0.721649 0.000000
v -0.213081 0.721649 0.000000
v -0.213081 0.721649 0.000000
v 0.065329 1.000000 0.000000
v 0.065329 1.000000 0.000000
v 0.065329 0.989691 0.000000
v 0.085952 0.185567 0.000000
v 0.085952 0.000000 0.000000
v 0.085952 0.000000 0.000000
v -0.068720 0.175258 0.000000
v -0.068720 0.329897 0.000000
v -0.068720 0.329897 0.000000
v 0.189066 0.412371 0.000000
v 0.189066 0.412371 0.000000
v 0.189066 0.402062 0.000000
v -0.048097 1.000000 0.000000
v -0.048097 1.000000 0.000000
v 0.008616 1.000000 0.000000
v -0.099655 0.432990 0.000000
v -0.068720 0.432990 0.000000
v -0.068720 0.432990 0.000000
v -0.130589 0.721649 0.000000
v -0.130589 0.721649 0.000000
v -0.130589 0.577320 0.000000
v -0.120277 0.329897 0.000000
v -0.171835 0.329897 0.000000
v -0.171835 0.329897 0.000000
v 0.189066 0.391753 0.000000
v 0.189066 0.391753 0.000000
v 0.178755 0.391753 0.000000
v 0.209689 0.783505 0.000000
v 0.209689 0.783505 0.000000
v 0.209689 0.773196 0.000000
v -0.228548 0.391753 0.000000
v -0.244015 0.391753 0.000000
v -0.244015 0.391753 0.000000
v 0.230312 0.597938 0.000000
v 0.230312 0.432990 0.000000
v 0.230312 0.432990 0.000000
v 0.168443 0.391753 0.000000
v 0.168443 0.391753 0.000000
v 0.168443 0.381443 0.000000
v 0.168443 0.783505 0.000000
v 0.168443 0.783505 0.000000
v 0.189066 0.783505 0.000000
v 0.065329 0.979382 0.000000
v 0.065329 0.979382 0.000000
v 0.075640 0.979382 0.000000
v -0.192458 0.350515 0.000000
v -0.192458 0.350515 0.000000
v -0.089343 0.020619 0.000000
v -0.068720 0.020619 0.000000
v -0.068720 0.020619 0.000000
v 0.209689 0.412371 0.000000
v 0.209689 0.412371 0.000000
v 0.199378 0.412371 0.000000
v -0.171835 0.350515 0.000000
v -0.171835 0.350515 0.000000
v -0.182146 0.350515 0.000000
v -0.130589 0.432990 0.000000
v -0.130589 0.432990 0.000000
v 0.209689 0.762887 0.000000
v 0.209689 0.762887 0.000000
v -0.213081 0.381443 0.000000
v -0.213081 0.391753 0.000000
v -0.213081 0.391753 0.000000
v -0.109966 0.010309 0.000000
v -0.109966 0.000000 0.000000
v -0.109966 0.000000 0.000000
v -0.151212 0.742268 0.000000
v -0.151212 0.742268 0.000000
v 0.085952 0.979382 0.000000
v 0.085952 0.979382 0.000000
v 0.085952 0.706186 0.000000
v -0.213081 0.742268 -0.050000
v -0.213081 0.742268 -0.050000
v -0.182146 0.742268 -0.050000
v 0.147820 0.762887 0.000000
v 0.147820 0.762887 0.000000
v -0.109966 0.020619 0.000000
v -0.109966 0.020619 0.000000
v 0.209689 0.422680 0.000000
v 0.158132 0.762887 0.000000
v 0.168443 0.762887 0.000000
v 0.168443 0.762887 0.000000
v -0.213081 0.731959 0.000000
v -0.048097 0.989691 0.000000
v 0.085952 0.371134 0.000000
v 0.085952 0.371134 0.000000
v -0.151212 0.731959 0.000000
v -0.012007 0.000000 0.000000
v -0.171835 0.340206 0.000000
v 0.168443 0.773196 0.000000
v -0.192458 0.360825 -0.050000
v -0.192458 0.371134 -0.050000
v -0.192458 0.371134 -0.050000
v 0.220001 0.432990 -0.050000
v 0.209689 0.432990 -0.050000
v 0.209689 0.432990 -0.050000
v 0.220001 0.762887 -0.050000
v 0.230312 0.762887 -0.050000
v 0.230312 0.762887 -0.050000
v -0.202769 0.371134 -0.050000
v -0.213081 0.371134 -0.050000
v -0.213081 0.371134 -0.050000
v 0.147820 0.432990 -0.050000
v 0.147820 0.432990 -0.050000
v 0.147820 0.597938 -0.050000
v -0.151212 0.721649 -0.050000
v -0.151212 0.721649 -0.050000
v -0.140900 0.721649 -0.050000
v -0.068720 0.706186 -0.050000
v -0.068720 0.979382 -0.050000
v -0.068720 0.979382 -0.050000
v 0.085952 0.432990 -0.050000
v 0.085952 0.432990 -0.050000
v 0.116886 0.432990 -0.050000
v -0.244015 0.556701 -0.050000
v -0.244015 0.721649 -0.050000
v -0.244015 0.721649 -0.050000
v -0.058409 0.979382 -0.050000
v -0.048097 0.979382 -0.050000
v -0.048097 0.979382 -0.050000
v 0.168443 0.371134 -0.050000
v 0.168443 0.371134 -0.050000
v 0.127198 0.371134 -0.050000
v -0.228548 0.721649 -0.050000
v -0.213081 0.721649 -0.050000
v -0.213081 0.721649 -0.050000
v 0.065329 1.000000 -0.050000
v 0.065329 1.000000 -0.050000
v 0.065329 0.989691 -0.050000
v 0.085952 0.185567 -0.050000
v 0.085952 0.000000 -0.050000
v 0.085952 0.000000 -0.050000
v -0.068720 0.175258 -0.050000
v -0.068720 0.329897 -0.050000
v -0.068720 0.329897 -0.050000
v 0.189066 0.412371 -0.050000
v 0.189066 0.412371 -0.050000
v 0.189066 0.402062 -0.050000
v -0.048097 1.000000 -0.050000
v -0.048097 1.000000 -0.050000
v 0.008616 1.000000 -0.050000
v -0.099655 0.432990 -0.050000
v -0.068720 0.432990 -0.050000
v -0.068720 0.432990 -0.050000
v -0.130589 0.721649 -0.050000
v -0.130589 0.721649 -0.050000
v -0.130589 0.577320 -0.050000
v -0.120277 0.329897 -0.050000
v -0.171835 0.329897 -0.050000
v -0.171835 0.329897 -0.050000
v 0.189066 0.391753 -0.050000
v 0.189066 0.391753 -0.050000
v 0.178755 0.391753 -0.050000
v 0.209689 0.783505 -0.050000
v 0.209689 0.783505 -0.050000
v 0.209689 0.773196 -0.050000
v -0.228548 0.391753 -0.050000
v -0.244015 0.391753 -0.050000
v -0.244015 0.391753 -0.050000
v 0.230312 0.597938 -0.050000
v 0.230312 0.432990 -0.050000
v 0.230312 0.432990 -0.050000
v 0.168443 0.391753 -0.050000
v 0.168443 0.391753 -0.050000
v 0.168443 0.381443 -0.050000
v 0.168443 0.783505 -0.050000
v 0.168443 0.783505 -0.050000
v 0.189066 0.783505 -0.050000
v 0.065329 0.979382 -0.050000
v 0.065329 0.979382 -0.050000
v 0.075640 0.979382 -0.050000
v -0.192458 0.350515 -0.050000
v -0.192458 0.350515 -0.050000
v -0.089343 0.020619 -0.050000
v -0.068720 0.020619 -0.050000
v -0.068720 0.020619 -0.050000
v 0.209689 0.412371 -0.050000
v 0.209689 0.412371 -0.050000
v 0.199378 0.412371 -0.050000
v -0.171835 0.350515 -0.050000
v -0.171835 0.350515 -0.050000
v -0.182146 0.350515 -0.050000
v -0.130589 0.432990 -0.050000
v -0.130589 0.432990 -0.050000
v 0.209689 0.762887 -0.050000
v 0.209689 0.762887 -0.050000
v -0.213081 0.381443 -0.050000
v -0.213081 0.391753 -0.050000
v -0.213081 0.391753 -0.050000
v -0.109966 0.010309 -0.050000
v -0.109966 0.000000 -0.050000
v -0.109966 0.000000 -0.050000
v -0.151212 0.742268 -0.050000
v -0.151212 0.742268 -0.050000
v 0.085952 0.979382 -0.050000
v 0.085952 0.979382 -0.050000
v 0.085952 0.706186 -0.050000
v 0.147820 0.762887 -0.050000
v 0.147820 0.762887 -0.050000
v -0.109966 0.020619 -0.050000
v -0.109966 0.020619 -0.050000
v 0.209689 0.422680 -0.050000
v 0.158132 0.762887 -0.050000
v 0.168443 0.762887 -0.050000
v 0.168443 0.762887 -0.050000
v -0.213081 0.731959 -0.050000
v -0.048097 0.989691 -0.050000
v 0.085952 0.371134 -0.050000
v 0.085952 0.371134 -0.050000
v -0.151212 0.731959 -0.050000
v -0.012007 0.000000 -0.050000
v -0.171835 0.340206 -0.050000
v 0.168443 0.773196 -0.050000
vn 0.0000 0.0000 1.0000
vn 0.0000 0.0000 -1.0000
vn 0.0000 1.0000 0.0000
vn -1.0000 0.0000 0.0000
vn 0.0000 -1.0000 0.0000
vn 1.0000 0.0000 0.0000
usemtl SVGMat.006
s 1
f 291//1 222//1 220//1
f 224//1 223//1 215//1
f 294//1 274//1 171//1
f 237//1 235//1 249//1
f 210//1 222//1 250//1
f 190//1 199//1 191//1
f 190//1 200//1 199//1
f 190//1 250//1 200//1
f 190//1 278//1 250//1
f 204//1 244//1 184//1
f 278//1 252//1 250//1
f 297//1 249//1 247//1
f 249//1 288//1 266//1
f 241//1 178//1 266//1
f 264//1 261//1 229//1
f 237//1 249//1 266//1
f 186//1 287//1 282//1
f 186//1 288//1 287//1
f 186//1 266//1 288//1
f 186//1 241//1 266//1
f 241//1 176//1 175//1
f 249//1 297//1 288//1
f 290//1 171//1 169//1
f 228//1 189//1 187//1
f 222//1 200//1 250//1
f 260//1 258//1 286//1
f 294//1 171//1 187//1
f 196//1 205//1 197//1
f 196//1 206//1 205//1
f 196//1 228//1 206//1
f 171//1 206//1 187//1
f 228//1 187//1 206//1
f 176//1 241//1 186//1
f 224//1 278//1 190//1
f 224//1 193//1 278//1
f 184//1 176//1 186//1
f 272//1 256//1 255//1
f 196//1 264//1 228//1
f 239//1 238//1 196//1
f 264//1 269//1 173//1
f 238//1 269//1 196//1
f 223//1 229//1 215//1
f 292//1 224//1 215//1
f 241//1 179//1 178//1
f 173//1 172//1 263//1
f 224//1 292//1 193//1
f 195//1 204//1 184//1
f 242//1 241//1 175//1
f 171//1 290//1 206//1
f 217//1 244//1 234//1
f 184//1 244//1 217//1
f 219//1 217//1 234//1
f 217//1 260//1 176//1
f 228//1 226//1 189//1
f 414//2 346//2 348//2
f 182//1 181//1 268//1
f 260//1 286//1 176//1
f 173//1 269//1 181//1
f 232//1 219//1 234//1
f 195//1 193//1 292//1
f 223//1 264//1 229//1
f 264//1 173//1 261//1
f 269//1 264//1 196//1
f 210//1 208//1 222//1
f 204//1 195//1 292//1
f 269//1 268//1 181//1
f 215//1 211//1 292//1
f 204//1 246//1 244//1
f 253//1 263//1 172//1
f 261//1 173//1 263//1
f 204//1 202//1 246//1
f 296//1 229//1 261//1
f 230//1 229//1 296//1
f 222//1 291//1 200//1
f 214//1 211//1 215//1
f 214//1 295//1 211//1
f 256//1 295//1 214//1
f 271//1 255//1 284//1
f 271//1 272//1 255//1
f 278//1 276//1 252//1
f 256//1 272//1 295//1
f 295//1 212//1 211//1
f 184//1 217//1 176//1
f 350//2 341//2 349//2
f 417//2 281//2 400//2
f 363//2 375//2 361//2
f 336//2 376//2 348//2
f 316//2 317//2 325//2
f 316//2 325//2 326//2
f 316//2 326//2 376//2
f 316//2 376//2 404//2
f 330//2 310//2 370//2
f 404//2 376//2 378//2
f 420//2 373//2 375//2
f 375//2 392//2 411//2
f 367//2 392//2 304//2
f 390//2 355//2 387//2
f 363//2 392//2 375//2
f 312//2 405//2 410//2
f 312//2 410//2 411//2
f 312//2 411//2 392//2
f 312//2 392//2 367//2
f 367//2 301//2 302//2
f 375//2 411//2 420//2
f 413//2 279//2 281//2
f 354//2 313//2 315//2
f 348//2 376//2 326//2
f 386//2 409//2 384//2
f 417//2 313//2 281//2
f 322//2 323//2 331//2
f 322//2 331//2 332//2
f 322//2 332//2 354//2
f 281//2 313//2 332//2
f 354//2 332//2 313//2
f 302//2 312//2 367//2
f 350//2 316//2 404//2
f 350//2 404//2 319//2
f 310//2 312//2 302//2
f 398//2 381//2 382//2
f 322//2 354//2 390//2
f 365//2 322//2 364//2
f 390//2 299//2 395//2
f 364//2 322//2 395//2
f 349//2 341//2 355//2
f 415//2 341//2 350//2
f 367//2 304//2 305//2
f 299//2 389//2 298//2
f 350//2 319//2 415//2
f 321//2 310//2 330//2
f 368//2 301//2 367//2
f 281//2 332//2 413//2
f 343//2 360//2 370//2
f 310//2 343//2 370//2
f 345//2 360//2 343//2
f 343//2 302//2 386//2
f 354//2 315//2 352//2
f 308//2 394//2 307//2
f 386//2 302//2 409//2
f 299//2 307//2 395//2
f 358//2 360//2 345//2
f 321//2 415//2 319//2
f 349//2 355//2 390//2
f 390//2 387//2 299//2
f 395//2 322//2 390//2
f 336//2 348//2 334//2
f 330//2 415//2 321//2
f 395//2 307//2 394//2
f 341//2 415//2 337//2
f 330//2 370//2 372//2
f 379//2 298//2 389//2
f 387//2 389//2 299//2
f 330//2 372//2 328//2
f 419//2 387//2 355//2
f 356//2 419//2 355//2
f 348//2 326//2 414//2
f 340//2 341//2 337//2
f 340//2 337//2 418//2
f 382//2 340//2 418//2
f 397//2 407//2 381//2
f 397//2 381//2 398//2
f 404//2 378//2 402//2
f 382//2 418//2 398//2
f 418//2 337//2 338//2
f 310//2 302//2 343//2
f 207//3 333//3 107//3 23//3
f 21//4 105//4 366//4 240//4
f 7//5 91//5 342//5 216//5
f 39//3 123//3 318//3 192//3
f 45//6 129//6 335//6 209//6
f 254//5 380//5 95//5 11//5
f 257//3 383//3 87//3 3//3
f 273//5 399//5 167//5 83//5
f 245//5 371//5 159//5 75//5
f 71//5 155//5 385//5 259//5
f 213//6 339//6 165//6 81//6
f 203//6 329//6 161//6 77//6
f 81//6 165//6 416//6 293//6
f 11//5 95//5 388//5 262//5
f 19//5 103//5 396//5 270//5
f 27//3 111//3 280//3 170//3
f 265//6 391//6 117//6 33//6
f 174//4 300//4 97//4 13//4
f 188//6 314//6 113//6 29//6
f 289//3 412//3 139//3 55//3
f 29//6 113//6 401//6 275//6
f 6//4 90//4 89//4 5//4
f 63//3 147//3 393//3 267//3
f 73//6 157//6 344//6 218//6
f 221//4 347//4 125//4 41//4
f 177//5 303//5 151//5 67//5
f 277//3 403//3 131//3 47//3
f 25//4 109//4 108//4 24//4
f 65//6 149//6 306//6 180//6
f 57//4 141//4 140//4 56//4
f 43//3 127//3 126//3 42//3
f 55//3 139//3 406//3 283//3
f 44//3 128//3 127//3 43//3
f 18//4 102//4 101//4 17//4
f 70//6 154//6 153//6 69//6
f 5//4 89//4 88//4 4//4
f 64//3 148//3 147//3 63//3
f 83//5 167//5 166//5 82//5
f 1//4 85//4 168//4 84//4
f 62//6 146//6 145//6 61//6
f 37//4 121//4 351//4 225//4
f 36//3 120//3 119//3 35//3
f 183//5 309//5 99//5 15//5
f 227//3 353//3 115//3 31//3
f 33//6 117//6 116//6 32//6
f 233//6 359//6 157//6 73//6
f 231//5 357//5 91//5 7//5
f 53//4 137//4 311//4 185//4
f 75//5 159//5 158//5 74//5
f 194//6 320//6 133//6 49//6
f 23//3 107//3 324//3 198//3
f 61//6 145//6 362//6 236//6
f 3//3 87//3 408//3 285//3
f 31//3 115//3 114//3 30//3
f 28//3 112//3 111//3 27//3
f 248//4 374//4 141//4 57//4
f 38//4 122//4 121//4 37//4
f 26//4 110//4 109//4 25//4
f 51//3 135//3 134//3 50//3
f 35//3 119//3 118//3 34//3
f 49//6 133//6 132//6 48//6
f 251//6 377//6 129//6 45//6
f 17//4 101//4 100//4 16//4
f 15//5 99//5 98//5 14//5
f 20//5 104//5 103//5 19//5
f 22//4 106//4 105//4 21//4
f 9//4 93//4 92//4 8//4
f 52//3 136//3 135//3 51//3
f 243//6 369//6 149//6 65//6
f 10//4 94//4 93//4 9//4
f 201//3 327//3 123//3 39//3
f 80//5 164//5 163//5 79//5
f 54//4 138//4 137//4 53//4
f 77//6 161//6 160//6 76//6
f 2//4 86//4 85//4 1//4
f 59//3 143//3 142//3 58//3
f 79//5 163//5 162//5 78//5
f 60//3 144//3 143//3 59//3
f 69//6 153//6 152//6 68//6
f 47//3 131//3 130//3 46//3
f 72//5 156//5 155//5 71//5
f 67//5 151//5 150//5 66//5
f 41//4 125//4 124//4 40//4
f 13//4 97//4 96//4 12//4
