# Blender v2.79 (sub 0) OBJ File: 'svg-extruder2.blend'
# www.blender.org
mtllib cactus-7.mtl
o Curve_CUpath4145
v -0.122777 0.010101 0.000000
v -0.122777 0.020202 0.000000
v -0.097519 0.020202 0.000000
v -0.072261 0.020202 0.000000
v -0.072261 0.242424 0.000000
v -0.072261 0.464646 0.000000
v -0.127829 0.464646 0.000000
v -0.183396 0.464646 0.000000
v -0.183396 0.479798 0.000000
v -0.183396 0.494949 0.000000
v -0.193499 0.494949 0.000000
v -0.203602 0.494949 0.000000
v -0.203602 0.505050 0.000000
v -0.203602 0.515151 0.000000
v -0.213706 0.515151 0.000000
v -0.223809 0.515151 0.000000
v -0.223809 0.525252 0.000000
v -0.223809 0.535353 0.000000
v -0.233912 0.535353 0.000000
v -0.244015 0.535353 0.000000
v -0.244015 0.691919 0.000000
v -0.244015 0.848485 0.000000
v -0.233912 0.848485 0.000000
v -0.223809 0.848485 0.000000
v -0.223809 0.858586 0.000000
v -0.223809 0.868687 0.000000
v -0.193499 0.868687 0.000000
v -0.163190 0.868687 0.000000
v -0.163190 0.858586 0.000000
v -0.163190 0.848485 0.000000
v -0.153087 0.848485 0.000000
v -0.142984 0.848485 0.000000
v -0.142984 0.712121 0.000000
v -0.142984 0.575758 0.000000
v -0.107622 0.575758 0.000000
v -0.072261 0.575758 0.000000
v -0.072261 0.777778 0.000000
v -0.072261 0.979798 0.000000
v -0.062158 0.979798 0.000000
v -0.052055 0.979798 0.000000
v -0.052055 0.989899 0.000000
v -0.052055 1.000000 0.000000
v -0.001539 1.000000 0.000000
v 0.048976 1.000000 0.000000
v 0.048976 0.989899 0.000000
v 0.048976 0.979798 0.000000
v 0.059079 0.979798 0.000000
v 0.069183 0.979798 0.000000
v 0.069183 0.702020 0.000000
v 0.069183 0.424242 0.000000
v 0.099492 0.424242 0.000000
v 0.129801 0.424242 0.000000
v 0.129801 0.585858 0.000000
v 0.129801 0.747475 0.000000
v 0.144956 0.747475 0.000000
v 0.160111 0.747475 0.000000
v 0.160111 0.757576 0.000000
v 0.160111 0.767677 0.000000
v 0.190420 0.767677 0.000000
v 0.220730 0.767677 0.000000
v 0.220730 0.757576 0.000000
v 0.220730 0.747475 0.000000
v 0.230833 0.747475 0.000000
v 0.240936 0.747475 0.000000
v 0.240936 0.595959 0.000000
v 0.240936 0.444444 0.000000
v 0.230833 0.444444 0.000000
v 0.220730 0.444444 0.000000
v 0.220730 0.434343 0.000000
v 0.220730 0.424242 0.000000
v 0.210626 0.424242 0.000000
v 0.200523 0.424242 0.000000
v 0.200523 0.414141 0.000000
v 0.200523 0.404040 0.000000
v 0.190420 0.404040 0.000000
v 0.180317 0.404040 0.000000
v 0.180317 0.393939 0.000000
v 0.180317 0.383838 0.000000
v 0.170214 0.383838 0.000000
v 0.160111 0.383838 0.000000
v 0.160111 0.373737 0.000000
v 0.160111 0.363636 0.000000
v 0.114647 0.363636 0.000000
v 0.069183 0.363636 0.000000
v 0.069183 0.181818 0.000000
v 0.069183 -0.000000 -0.000000
v -0.026797 -0.000000 -0.000000
v -0.122777 -0.000000 -0.000000
v -0.122777 0.010101 -0.050000
v -0.122777 0.020202 -0.050000
v -0.097519 0.020202 -0.050000
v -0.072261 0.020202 -0.050000
v -0.072261 0.242424 -0.050000
v -0.072261 0.464646 -0.050000
v -0.127829 0.464646 -0.050000
v -0.183396 0.464646 -0.050000
v -0.183396 0.479798 -0.050000
v -0.183396 0.494949 -0.050000
v -0.193499 0.494949 -0.050000
v -0.203602 0.494949 -0.050000
v -0.203602 0.505050 -0.050000
v -0.203602 0.515151 -0.050000
v -0.213706 0.515151 -0.050000
v -0.223809 0.515151 -0.050000
v -0.223809 0.525252 -0.050000
v -0.223809 0.535353 -0.050000
v -0.233912 0.535353 -0.050000
v -0.244015 0.535353 -0.050000
v -0.244015 0.691919 -0.050000
v -0.244015 0.848485 -0.050000
v -0.233912 0.848485 -0.050000
v -0.223809 0.848485 -0.050000
v -0.223809 0.858586 -0.050000
v -0.223809 0.868687 -0.050000
v -0.193499 0.868687 -0.050000
v -0.163190 0.868687 -0.050000
v -0.163190 0.858586 -0.050000
v -0.163190 0.848485 -0.050000
v -0.153087 0.848485 -0.050000
v -0.142984 0.848485 -0.050000
v -0.142984 0.712121 -0.050000
v -0.142984 0.575758 -0.050000
v -0.107622 0.575758 -0.050000
v -0.072261 0.575758 -0.050000
v -0.072261 0.777778 -0.050000
v -0.072261 0.979798 -0.050000
v -0.062158 0.979798 -0.050000
v -0.052055 0.979798 -0.050000
v -0.052055 0.989899 -0.050000
v -0.052055 1.000000 -0.050000
v -0.001539 1.000000 -0.050000
v 0.048976 1.000000 -0.050000
v 0.048976 0.989899 -0.050000
v 0.048976 0.979798 -0.050000
v 0.059079 0.979798 -0.050000
v 0.069183 0.979798 -0.050000
v 0.069183 0.702020 -0.050000
v 0.069183 0.424242 -0.050000
v 0.099492 0.424242 -0.050000
v 0.129801 0.424242 -0.050000
v 0.129801 0.585858 -0.050000
v 0.129801 0.747475 -0.050000
v 0.144956 0.747475 -0.050000
v 0.160111 0.747475 -0.050000
v 0.160111 0.757576 -0.050000
v 0.160111 0.767677 -0.050000
v 0.190420 0.767677 -0.050000
v 0.220730 0.767677 -0.050000
v 0.220730 0.757576 -0.050000
v 0.220730 0.747475 -0.050000
v 0.230833 0.747475 -0.050000
v 0.240936 0.747475 -0.050000
v 0.240936 0.595959 -0.050000
v 0.240936 0.444444 -0.050000
v 0.230833 0.444444 -0.050000
v 0.220730 0.444444 -0.050000
v 0.220730 0.434343 -0.050000
v 0.220730 0.424242 -0.050000
v 0.210626 0.424242 -0.050000
v 0.200523 0.424242 -0.050000
v 0.200523 0.414141 -0.050000
v 0.200523 0.404040 -0.050000
v 0.190420 0.404040 -0.050000
v 0.180317 0.404040 -0.050000
v 0.180317 0.393939 -0.050000
v 0.180317 0.383838 -0.050000
v 0.170214 0.383838 -0.050000
v 0.160111 0.383838 -0.050000
v 0.160111 0.373737 -0.050000
v 0.160111 0.363636 -0.050000
v 0.114647 0.363636 -0.050000
v 0.069183 0.363636 -0.050000
v 0.069183 0.181818 -0.050000
v 0.069183 -0.000000 -0.050000
v -0.026797 -0.000000 -0.050000
v -0.122777 -0.000000 -0.050000
v -0.223809 0.868687 0.000000
v -0.223809 0.868687 0.000000
v -0.193499 0.868687 0.000000
v -0.203602 0.505050 0.000000
v -0.203602 0.515151 0.000000
v -0.203602 0.515151 0.000000
v 0.230833 0.444444 0.000000
v 0.220730 0.444444 0.000000
v 0.220730 0.444444 0.000000
v 0.230833 0.747475 0.000000
v 0.240936 0.747475 0.000000
v 0.240936 0.747475 0.000000
v -0.213706 0.515151 0.000000
v -0.223809 0.515151 0.000000
v -0.223809 0.515151 0.000000
v 0.129801 0.424242 0.000000
v 0.129801 0.424242 0.000000
v 0.129801 0.585858 0.000000
v -0.163190 0.848485 0.000000
v -0.163190 0.848485 0.000000
v -0.153087 0.848485 0.000000
v -0.072261 0.777778 0.000000
v -0.072261 0.979798 0.000000
v -0.072261 0.979798 0.000000
v 0.069183 0.424242 0.000000
v 0.069183 0.424242 0.000000
v 0.099492 0.424242 0.000000
v -0.244015 0.691919 0.000000
v -0.244015 0.848485 0.000000
v -0.244015 0.848485 0.000000
v -0.062158 0.979798 0.000000
v -0.052055 0.979798 0.000000
v -0.052055 0.979798 0.000000
v 0.180317 0.383838 0.000000
v 0.180317 0.383838 0.000000
v 0.170214 0.383838 0.000000
v -0.233912 0.848485 0.000000
v -0.223809 0.848485 0.000000
v -0.223809 0.848485 0.000000
v 0.048976 1.000000 0.000000
v 0.048976 1.000000 0.000000
v 0.048976 0.989899 0.000000
v 0.160111 0.373737 0.000000
v 0.160111 0.363636 0.000000
v 0.160111 0.363636 0.000000
v 0.200523 0.424242 0.000000
v 0.200523 0.424242 0.000000
v 0.200523 0.414141 0.000000
v -0.072261 0.242424 0.000000
v -0.072261 0.464646 0.000000
v -0.072261 0.464646 0.000000
v -0.052055 1.000000 0.000000
v -0.052055 1.000000 0.000000
v -0.001539 1.000000 0.000000
v -0.107622 0.575758 0.000000
v -0.072261 0.575758 0.000000
v -0.072261 0.575758 0.000000
v -0.142984 0.848485 0.000000
v -0.142984 0.848485 0.000000
v -0.142984 0.712121 0.000000
v 0.200523 0.404040 0.000000
v 0.200523 0.404040 0.000000
v 0.190420 0.404040 0.000000
v -0.127829 0.464646 0.000000
v -0.183396 0.464646 0.000000
v -0.183396 0.464646 0.000000
v 0.220730 0.767677 0.000000
v 0.220730 0.767677 0.000000
v 0.220730 0.757576 0.000000
v 0.069183 -0.000000 -0.000000
v 0.069183 -0.000000 -0.000000
v -0.026797 -0.000000 -0.000000
v -0.122777 0.010101 0.000000
v -0.122777 -0.000000 -0.000000
v -0.122777 -0.000000 -0.000000
v -0.233912 0.535353 0.000000
v -0.244015 0.535353 0.000000
v -0.244015 0.535353 0.000000
v 0.240936 0.595959 0.000000
v 0.240936 0.444444 0.000000
v 0.240936 0.444444 0.000000
v 0.180317 0.404040 0.000000
v 0.180317 0.404040 0.000000
v 0.180317 0.393939 0.000000
v 0.160111 0.767677 0.000000
v 0.160111 0.767677 0.000000
v 0.190420 0.767677 0.000000
v 0.048976 0.979798 0.000000
v 0.048976 0.979798 0.000000
v 0.059079 0.979798 0.000000
v -0.203602 0.494949 0.000000
v -0.203602 0.494949 0.000000
v -0.097519 0.020202 0.000000
v -0.072261 0.020202 0.000000
v -0.072261 0.020202 0.000000
v 0.220730 0.424242 0.000000
v 0.220730 0.424242 0.000000
v 0.210626 0.424242 0.000000
v -0.183396 0.494949 0.000000
v -0.183396 0.494949 0.000000
v -0.193499 0.494949 0.000000
v -0.142984 0.575758 0.000000
v -0.142984 0.575758 0.000000
v 0.220730 0.747475 0.000000
v 0.220730 0.747475 0.000000
v 0.069183 0.363636 0.000000
v 0.069183 0.363636 0.000000
v 0.069183 0.181818 0.000000
v -0.223809 0.525252 0.000000
v -0.223809 0.535353 0.000000
v -0.223809 0.535353 0.000000
v -0.163190 0.868687 0.000000
v -0.163190 0.868687 0.000000
v 0.069183 0.979798 0.000000
v 0.069183 0.979798 0.000000
v 0.069183 0.702020 0.000000
v 0.129801 0.747475 0.000000
v 0.129801 0.747475 0.000000
v -0.122777 0.020202 0.000000
v -0.122777 0.020202 0.000000
v 0.220730 0.434343 0.000000
v 0.144956 0.747475 0.000000
v 0.160111 0.747475 0.000000
v 0.160111 0.747475 0.000000
v -0.223809 0.858586 0.000000
v -0.052055 0.989899 0.000000
v -0.223809 0.868687 -0.050000
v -0.223809 0.868687 -0.050000
v -0.193499 0.868687 -0.050000
v 0.160111 0.383838 0.000000
v 0.160111 0.383838 0.000000
v -0.163190 0.858586 0.000000
v 0.114647 0.363636 0.000000
v -0.183396 0.479798 0.000000
v 0.160111 0.757576 0.000000
v -0.203602 0.505050 -0.050000
v -0.203602 0.515151 -0.050000
v -0.203602 0.515151 -0.050000
v 0.230833 0.444444 -0.050000
v 0.220730 0.444444 -0.050000
v 0.220730 0.444444 -0.050000
v 0.230833 0.747475 -0.050000
v 0.240936 0.747475 -0.050000
v 0.240936 0.747475 -0.050000
v -0.213706 0.515151 -0.050000
v -0.223809 0.515151 -0.050000
v -0.223809 0.515151 -0.050000
v 0.129801 0.424242 -0.050000
v 0.129801 0.424242 -0.050000
v 0.129801 0.585858 -0.050000
v -0.163190 0.848485 -0.050000
v -0.163190 0.848485 -0.050000
v -0.153087 0.848485 -0.050000
v -0.072261 0.777778 -0.050000
v -0.072261 0.979798 -0.050000
v -0.072261 0.979798 -0.050000
v 0.069183 0.424242 -0.050000
v 0.069183 0.424242 -0.050000
v 0.099492 0.424242 -0.050000
v -0.244015 0.691919 -0.050000
v -0.244015 0.848485 -0.050000
v -0.244015 0.848485 -0.050000
v -0.062158 0.979798 -0.050000
v -0.052055 0.979798 -0.050000
v -0.052055 0.979798 -0.050000
v 0.180317 0.383838 -0.050000
v 0.180317 0.383838 -0.050000
v 0.170214 0.383838 -0.050000
v -0.233912 0.848485 -0.050000
v -0.223809 0.848485 -0.050000
v -0.223809 0.848485 -0.050000
v 0.048976 1.000000 -0.050000
v 0.048976 1.000000 -0.050000
v 0.048976 0.989899 -0.050000
v 0.160111 0.373737 -0.050000
v 0.160111 0.363636 -0.050000
v 0.160111 0.363636 -0.050000
v 0.200523 0.424242 -0.050000
v 0.200523 0.424242 -0.050000
v 0.200523 0.414141 -0.050000
v -0.072261 0.242424 -0.050000
v -0.072261 0.464646 -0.050000
v -0.072261 0.464646 -0.050000
v -0.052055 1.000000 -0.050000
v -0.052055 1.000000 -0.050000
v -0.001539 1.000000 -0.050000
v -0.107622 0.575758 -0.050000
v -0.072261 0.575758 -0.050000
v -0.072261 0.575758 -0.050000
v -0.142984 0.848485 -0.050000
v -0.142984 0.848485 -0.050000
v -0.142984 0.712121 -0.050000
v 0.200523 0.404040 -0.050000
v 0.200523 0.404040 -0.050000
v 0.190420 0.404040 -0.050000
v -0.127829 0.464646 -0.050000
v -0.183396 0.464646 -0.050000
v -0.183396 0.464646 -0.050000
v 0.220730 0.767677 -0.050000
v 0.220730 0.767677 -0.050000
v 0.220730 0.757576 -0.050000
v 0.069183 -0.000000 -0.050000
v 0.069183 -0.000000 -0.050000
v -0.026797 -0.000000 -0.050000
v -0.122777 0.010101 -0.050000
v -0.122777 -0.000000 -0.050000
v -0.122777 -0.000000 -0.050000
v -0.233912 0.535353 -0.050000
v -0.244015 0.535353 -0.050000
v -0.244015 0.535353 -0.050000
v 0.240936 0.595959 -0.050000
v 0.240936 0.444444 -0.050000
v 0.240936 0.444444 -0.050000
v 0.180317 0.404040 -0.050000
v 0.180317 0.404040 -0.050000
v 0.180317 0.393939 -0.050000
v 0.160111 0.767677 -0.050000
v 0.160111 0.767677 -0.050000
v 0.190420 0.767677 -0.050000
v 0.048976 0.979798 -0.050000
v 0.048976 0.979798 -0.050000
v 0.059079 0.979798 -0.050000
v -0.203602 0.494949 -0.050000
v -0.203602 0.494949 -0.050000
v -0.097519 0.020202 -0.050000
v -0.072261 0.020202 -0.050000
v -0.072261 0.020202 -0.050000
v 0.220730 0.424242 -0.050000
v 0.220730 0.424242 -0.050000
v 0.210626 0.424242 -0.050000
v -0.183396 0.494949 -0.050000
v -0.183396 0.494949 -0.050000
v -0.193499 0.494949 -0.050000
v -0.142984 0.575758 -0.050000
v -0.142984 0.575758 -0.050000
v 0.220730 0.747475 -0.050000
v 0.220730 0.747475 -0.050000
v 0.069183 0.363636 -0.050000
v 0.069183 0.363636 -0.050000
v 0.069183 0.181818 -0.050000
v -0.223809 0.525252 -0.050000
v -0.223809 0.535353 -0.050000
v -0.223809 0.535353 -0.050000
v -0.163190 0.868687 -0.050000
v -0.163190 0.868687 -0.050000
v 0.069183 0.979798 -0.050000
v 0.069183 0.979798 -0.050000
v 0.069183 0.702020 -0.050000
v 0.129801 0.747475 -0.050000
v 0.129801 0.747475 -0.050000
v -0.122777 0.020202 -0.050000
v -0.122777 0.020202 -0.050000
v 0.220730 0.434343 -0.050000
v 0.144956 0.747475 -0.050000
v 0.160111 0.747475 -0.050000
v 0.160111 0.747475 -0.050000
v -0.223809 0.858586 -0.050000
v -0.052055 0.989899 -0.050000
v 0.160111 0.383838 -0.050000
v 0.160111 0.383838 -0.050000
v -0.163190 0.858586 -0.050000
v 0.114647 0.363636 -0.050000
v -0.183396 0.479798 -0.050000
v 0.160111 0.757576 -0.050000
vn 0.0000 0.0000 -1.0000
vn 0.0000 0.0000 1.0000
vn 1.0000 0.0000 0.0000
vn 0.0000 -1.0000 0.0000
vn 0.0000 1.0000 0.0000
vn -1.0000 0.0000 0.0000
usemtl SVGMat.008
s 1
f 302//1 228//1 230//1
f 309//1 306//1 219//1
f 309//1 219//1 220//1
f 236//1 197//1 234//1
f 218//1 264//1 230//1
f 198//1 199//1 207//1
f 198//1 207//1 208//1
f 198//1 208//1 264//1
f 198//1 264//1 292//1
f 274//1 184//1 297//1
f 292//1 264//1 266//1
f 301//1 177//1 179//1
f 263//1 299//1 311//1
f 230//1 208//1 302//1
f 263//1 280//1 299//1
f 308//1 195//1 179//1
f 204//1 205//1 213//1
f 204//1 213//1 214//1
f 204//1 214//1 236//1
f 212//1 260//1 210//1
f 236//1 214//1 195//1
f 179//1 214//1 301//1
f 232//1 198//1 292//1
f 311//1 261//1 263//1
f 255//1 186//1 187//1
f 308//1 179//1 288//1
f 250//1 269//1 270//1
f 245//1 280//1 263//1
f 194//1 293//1 298//1
f 194//1 298//1 299//1
f 194//1 299//1 255//1
f 278//1 240//1 275//1
f 255//1 299//1 280//1
f 179//1 195//1 214//1
f 204//1 236//1 278//1
f 232//1 292//1 201//1
f 253//1 204//1 252//1
f 194//1 255//1 184//1
f 192//1 194//1 184//1
f 245//1 263//1 243//1
f 278//1 181//1 286//1
f 252//1 204//1 286//1
f 255//1 183//1 184//1
f 286//1 204//1 278//1
f 231//1 240//1 278//1
f 181//1 277//1 180//1
f 190//1 285//1 189//1
f 181//1 189//1 286//1
f 231//1 226//1 240//1
f 218//1 230//1 216//1
f 267//1 180//1 277//1
f 275//1 277//1 181//1
f 278//1 275//1 181//1
f 226//1 232//1 201//1
f 310//1 275//1 240//1
f 241//1 310//1 240//1
f 248//1 284//1 246//1
f 225//1 226//1 282//1
f 192//1 184//1 222//1
f 256//1 183//1 255//1
f 292//1 266//1 290//1
f 258//1 222//1 239//1
f 282//1 226//1 201//1
f 282//1 201//1 203//1
f 230//1 264//1 208//1
f 232//1 226//1 231//1
f 306//1 258//1 212//1
f 272//1 274//1 297//1
f 258//1 192//1 222//1
f 212//1 258//1 260//1
f 239//1 222//1 224//1
f 286//1 189//1 285//1
f 306//1 192//1 258//1
f 434//2 362//2 360//2
f 309//1 203//1 192//1
f 239//1 224//1 237//1
f 309//1 192//1 306//1
f 225//1 282//1 284//1
f 222//1 184//1 274//1
f 270//1 225//1 284//1
f 270//1 284//1 248//1
f 249//1 295//1 269//1
f 249//1 269//1 250//1
f 236//1 195//1 197//1
f 270//1 248//1 250//1
f 255//1 280//1 186//1
f 282//1 203//1 309//1
f 438//2 351//2 435//2
f 438//2 352//2 351//2
f 368//2 366//2 329//2
f 350//2 362//2 396//2
f 330//2 339//2 331//2
f 330//2 340//2 339//2
f 330//2 396//2 340//2
f 330//2 424//2 396//2
f 406//2 429//2 316//2
f 424//2 398//2 396//2
f 433//2 305//2 303//2
f 395//2 440//2 431//2
f 362//2 434//2 340//2
f 395//2 431//2 412//2
f 437//2 305//2 327//2
f 336//2 345//2 337//2
f 336//2 346//2 345//2
f 336//2 368//2 346//2
f 344//2 342//2 392//2
f 368//2 327//2 346//2
f 305//2 433//2 346//2
f 364//2 424//2 330//2
f 440//2 395//2 393//2
f 387//2 319//2 318//2
f 437//2 420//2 305//2
f 382//2 402//2 401//2
f 377//2 395//2 412//2
f 326//2 430//2 425//2
f 326//2 431//2 430//2
f 326//2 387//2 431//2
f 410//2 407//2 372//2
f 387//2 412//2 431//2
f 305//2 346//2 327//2
f 336//2 410//2 368//2
f 364//2 333//2 424//2
f 385//2 384//2 336//2
f 326//2 316//2 387//2
f 324//2 316//2 326//2
f 377//2 375//2 395//2
f 410//2 418//2 313//2
f 384//2 418//2 336//2
f 387//2 316//2 315//2
f 418//2 410//2 336//2
f 363//2 410//2 372//2
f 313//2 312//2 409//2
f 322//2 321//2 417//2
f 313//2 418//2 321//2
f 363//2 372//2 358//2
f 350//2 348//2 362//2
f 399//2 409//2 312//2
f 407//2 313//2 409//2
f 410//2 313//2 407//2
f 358//2 333//2 364//2
f 439//2 372//2 407//2
f 373//2 372//2 439//2
f 380//2 378//2 416//2
f 357//2 414//2 358//2
f 324//2 354//2 316//2
f 388//2 387//2 315//2
f 424//2 422//2 398//2
f 390//2 371//2 354//2
f 414//2 333//2 358//2
f 414//2 335//2 333//2
f 362//2 340//2 396//2
f 364//2 363//2 358//2
f 435//2 344//2 390//2
f 404//2 429//2 406//2
f 390//2 354//2 324//2
f 344//2 392//2 390//2
f 371//2 356//2 354//2
f 418//2 417//2 321//2
f 435//2 390//2 324//2
f 438//2 324//2 335//2
f 371//2 369//2 356//2
f 438//2 435//2 324//2
f 357//2 416//2 414//2
f 354//2 406//2 316//2
f 402//2 416//2 357//2
f 402//2 380//2 416//2
f 381//2 401//2 427//2
f 381//2 382//2 401//2
f 368//2 329//2 327//2
f 402//2 382//2 380//2
f 387//2 318//2 412//2
f 414//2 438//2 335//2
f 294//3 53//3 141//3 426//3
f 47//4 265//4 397//4 135//4
f 296//3 1//3 89//3 428//3
f 13//3 268//3 400//3 101//3
f 3//4 2//4 90//4 91//4
f 215//4 23//4 111//4 347//4
f 307//5 79//5 167//5 436//5
f 69//6 185//6 317//6 157//6
f 45//6 217//6 349//6 133//6
f 41//3 209//3 341//3 129//3
f 262//3 57//3 145//3 394//3
f 9//3 242//3 374//3 97//3
f 27//4 178//4 304//4 115//4
f 39//4 200//4 332//4 127//4
f 247//6 85//6 173//6 379//6
f 221//6 81//6 169//6 353//6
f 244//4 59//4 147//4 376//4
f 7//5 227//5 359//5 95//5
f 259//5 75//5 163//5 391//5
f 271//4 3//4 91//4 403//4
f 46//6 45//6 133//6 134//6
f 182//3 13//3 101//3 314//3
f 71//5 273//5 405//5 159//5
f 67//5 257//5 389//5 155//5
f 276//3 9//3 97//3 408//3
f 73//6 223//6 355//6 161//6
f 21//3 254//3 386//3 109//3
f 68//5 67//5 155//5 156//5
f 300//4 55//4 143//4 432//4
f 6//3 5//3 93//3 94//3
f 11//5 10//5 98//5 99//5
f 72//5 71//5 159//5 160//5
f 43//4 229//4 361//4 131//4
f 188//4 63//4 151//4 320//4
f 81//6 80//6 168//6 169//6
f 279//6 33//6 121//6 411//6
f 12//5 11//5 99//5 100//5
f 65//6 64//6 152//6 153//6
f 283//5 83//5 171//5 415//5
f 233//4 35//4 123//4 365//4
f 211//6 77//6 165//6 343//6
f 33//6 235//6 367//6 121//6
f 191//5 15//5 103//5 323//5
f 196//6 29//6 117//6 328//6
f 63//4 281//4 413//4 151//4
f 29//6 289//6 421//6 117//6
f 19//5 287//5 419//5 107//5
f 25//3 24//3 112//3 113//3
f 75//5 238//5 370//5 163//5
f 53//3 193//3 325//3 141//3
f 44//4 43//4 131//4 132//4
f 291//4 47//4 135//4 423//4
f 8//5 7//5 95//5 96//5
f 42//3 41//3 129//3 130//3
f 83//5 82//5 170//5 171//5
f 85//6 84//6 172//6 173//6
f 57//3 56//3 144//3 145//3
f 61//6 60//6 148//6 149//6
f 37//3 36//3 124//3 125//3
f 18//3 17//3 105//3 106//3
f 70//6 69//6 157//6 158//6
f 55//4 54//4 142//4 143//4
f 31//4 30//4 118//4 119//4
f 32//4 31//4 119//4 120//4
f 23//4 206//4 338//4 111//4
f 62//6 61//6 149//6 150//6
f 5//3 4//3 92//3 93//3
f 38//3 37//3 125//3 126//3
f 74//6 73//6 161//6 162//6
f 87//5 86//5 174//5 175//5
f 51//4 202//4 334//4 139//4
f 26//3 25//3 113//3 114//3
f 1//3 251//3 383//3 89//3
f 22//3 21//3 109//3 110//3
f 52//4 51//4 139//4 140//4
f 20//5 19//5 107//5 108//5
f 88//5 87//5 175//5 176//5
f 40//4 39//4 127//4 128//4
f 50//6 49//6 137//6 138//6
f 17//3 16//3 104//3 105//3
f 28//4 27//4 115//4 116//4
f 66//6 65//6 153//6 154//6
f 79//5 78//5 166//5 167//5
f 49//6 48//6 136//6 137//6
f 77//6 76//6 164//6 165//6
f 15//5 14//5 102//5 103//5
f 59//4 58//4 146//4 147//4
f 35//4 34//4 122//4 123//4
