<?xml version="1.0" encoding="UTF-8" standalone="no"?>
<!-- Created with Inkscape (http://www.inkscape.org/) -->

<svg
   xmlns:dc="http://purl.org/dc/elements/1.1/"
   xmlns:cc="http://creativecommons.org/ns#"
   xmlns:rdf="http://www.w3.org/1999/02/22-rdf-syntax-ns#"
   xmlns:svg="http://www.w3.org/2000/svg"
   xmlns="http://www.w3.org/2000/svg"
   xmlns:sodipodi="http://sodipodi.sourceforge.net/DTD/sodipodi-0.dtd"
   xmlns:inkscape="http://www.inkscape.org/namespaces/inkscape"
   width="43.347954mm"
   height="93.292343mm"
   viewBox="0 0 153.59511 330.56343"
   id="svg4171"
   version="1.1"
   inkscape:version="0.91 r13725"
   sodipodi:docname="cactus-4.svg">
  <defs
     id="defs4173" />
  <sodipodi:namedview
     id="base"
     pagecolor="#ffffff"
     bordercolor="#666666"
     borderopacity="1.0"
     inkscape:pageopacity="0.0"
     inkscape:pageshadow="2"
     inkscape:zoom="0.35"
     inkscape:cx="-711.13169"
     inkscape:cy="122.53832"
     inkscape:document-units="px"
     inkscape:current-layer="svg4171"
     showgrid="false"
     fit-margin-top="0"
     fit-margin-left="0"
     fit-margin-right="0"
     fit-margin-bottom="0"
     inkscape:window-width="1366"
     inkscape:window-height="705"
     inkscape:window-x="-8"
     inkscape:window-y="-8"
     inkscape:window-maximized="1" />
  <metadata
     id="metadata4176">
    <rdf:RDF>
      <cc:Work
         rdf:about="">
        <dc:format>image/svg+xml</dc:format>
        <dc:type
           rdf:resource="http://purl.org/dc/dcmitype/StillImage" />
        <dc:title />
      </cc:Work>
    </rdf:RDF>
  </metadata>
  <path
     inkscape:connector-curvature="0"
     d="m 43.40732,327.2244 0,-3.33903 6.67805,0 6.67805,0 0,-50.08537 0,-50.08537 -15.02561,0 -15.02561,0 0,-3.33902 0,-3.33903 -3.33903,0 -3.33902,0 0,-3.33902 0,-3.33903 -3.33903,0 -3.33902,0 0,-3.33902 0,-3.33902 -3.33903,0 -3.33902,0 0,-3.33903 0,-3.33902 -3.33902,0 -3.33903,0 0,-53.4244 0,-53.42439 3.33903,0 3.33902,0 0,-3.33903 0,-3.33902 10.01707,0 10.01708,0 0,3.33902 0,3.33903 5.00853,0 5.00854,0 0,50.08537 0,50.08537 10.01707,0 10.01708,0 0,-91.82318 0,-91.82317 3.33902,0 3.33903,0 0,-3.33903 0,-3.339020026442 16.69512,0 16.69512,0 0,3.339020026442 0,3.33903 3.33903,0 3.33902,0 0,91.82317 0,91.82318 11.68659,0 11.68656,0 0,-53.4244 0,-53.42439 3.33903,0 3.33902,0 0,-3.33902 0,-3.33903 6.67805,0 6.67805,0 0,3.33903 0,3.33902 3.33903,0 3.33902,0 0,53.42439 0,53.4244 -3.33902,0 -3.33903,0 0,3.33902 0,3.33903 -3.33902,0 -3.33903,0 0,3.33902 0,3.33903 -3.33902,0 -3.33903,0 0,3.33902 0,3.33902 -15.02559,0 -15.02561,0 0,60.10245 0,60.10244 -30.05122,0 -30.05122,0 z"
     id="path4151" />
</svg>
