# Blender v2.79 (sub 0) OBJ File: 'svg-extruder2.blend'
# www.blender.org
mtllib cactus-5.mtl
o Curve_CUpath4149
v -0.054726 0.157895 0.000000
v -0.054726 0.315789 0.000000
v -0.086311 0.315789 0.000000
v -0.117897 0.315789 0.000000
v -0.117897 0.326316 0.000000
v -0.117897 0.336842 0.000000
v -0.128425 0.336842 0.000000
v -0.138954 0.336842 0.000000
v -0.138954 0.347368 0.000000
v -0.138954 0.357895 0.000000
v -0.154747 0.357895 0.000000
v -0.170540 0.357895 0.000000
v -0.170540 0.368421 0.000000
v -0.170540 0.378947 0.000000
v -0.181068 0.378947 0.000000
v -0.191597 0.378947 0.000000
v -0.191597 0.521053 0.000000
v -0.191597 0.663158 0.000000
v -0.181068 0.663158 0.000000
v -0.170540 0.663158 0.000000
v -0.170540 0.673684 0.000000
v -0.170540 0.684211 0.000000
v -0.144218 0.684211 0.000000
v -0.117897 0.684211 0.000000
v -0.117897 0.673684 0.000000
v -0.117897 0.663158 0.000000
v -0.107368 0.663158 0.000000
v -0.096840 0.663158 0.000000
v -0.096840 0.531579 0.000000
v -0.096840 0.400000 0.000000
v -0.075783 0.400000 0.000000
v -0.054726 0.400000 0.000000
v -0.054726 0.689474 0.000000
v -0.054726 0.978947 0.000000
v -0.044197 0.978947 0.000000
v -0.033669 0.978947 0.000000
v -0.033669 0.989474 0.000000
v -0.033669 1.000000 0.000000
v -0.002083 1.000000 0.000000
v 0.029503 1.000000 0.000000
v 0.029503 0.989474 0.000000
v 0.029503 0.978947 0.000000
v 0.040031 0.978947 0.000000
v 0.050560 0.978947 0.000000
v 0.050560 0.821053 0.000000
v 0.050560 0.663158 0.000000
v 0.087410 0.663158 0.000000
v 0.124259 0.663158 0.000000
v 0.124259 0.763158 0.000000
v 0.124259 0.863158 0.000000
v 0.134788 0.863158 0.000000
v 0.145317 0.863158 0.000000
v 0.145317 0.873684 0.000000
v 0.145317 0.884211 0.000000
v 0.155845 0.884211 0.000000
v 0.166374 0.884211 0.000000
v 0.166374 0.873684 0.000000
v 0.166374 0.863158 0.000000
v 0.176902 0.863158 0.000000
v 0.187431 0.863158 0.000000
v 0.187431 0.752632 0.000000
v 0.187431 0.642105 0.000000
v 0.176902 0.642105 0.000000
v 0.166374 0.642105 0.000000
v 0.166374 0.631579 0.000000
v 0.166374 0.621053 0.000000
v 0.155845 0.621053 0.000000
v 0.145317 0.621053 0.000000
v 0.145317 0.610526 0.000000
v 0.145317 0.600000 0.000000
v 0.097938 0.600000 0.000000
v 0.050560 0.600000 0.000000
v 0.050560 0.300000 0.000000
v 0.050560 0.000000 0.000000
v -0.002083 0.000000 0.000000
v -0.054726 0.000000 0.000000
v -0.054726 0.157895 -0.050000
v -0.054726 0.315789 -0.050000
v -0.086311 0.315789 -0.050000
v -0.117897 0.315789 -0.050000
v -0.117897 0.326316 -0.050000
v -0.117897 0.336842 -0.050000
v -0.128425 0.336842 -0.050000
v -0.138954 0.336842 -0.050000
v -0.138954 0.347368 -0.050000
v -0.138954 0.357895 -0.050000
v -0.154747 0.357895 -0.050000
v -0.170540 0.357895 -0.050000
v -0.170540 0.368421 -0.050000
v -0.170540 0.378947 -0.050000
v -0.181068 0.378947 -0.050000
v -0.191597 0.378947 -0.050000
v -0.191597 0.521053 -0.050000
v -0.191597 0.663158 -0.050000
v -0.181068 0.663158 -0.050000
v -0.170540 0.663158 -0.050000
v -0.170540 0.673684 -0.050000
v -0.170540 0.684211 -0.050000
v -0.144218 0.684211 -0.050000
v -0.117897 0.684211 -0.050000
v -0.117897 0.673684 -0.050000
v -0.117897 0.663158 -0.050000
v -0.107368 0.663158 -0.050000
v -0.096840 0.663158 -0.050000
v -0.096840 0.531579 -0.050000
v -0.096840 0.400000 -0.050000
v -0.075783 0.400000 -0.050000
v -0.054726 0.400000 -0.050000
v -0.054726 0.689474 -0.050000
v -0.054726 0.978947 -0.050000
v -0.044197 0.978947 -0.050000
v -0.033669 0.978947 -0.050000
v -0.033669 0.989474 -0.050000
v -0.033669 1.000000 -0.050000
v -0.002083 1.000000 -0.050000
v 0.029503 1.000000 -0.050000
v 0.029503 0.989474 -0.050000
v 0.029503 0.978947 -0.050000
v 0.040031 0.978947 -0.050000
v 0.050560 0.978947 -0.050000
v 0.050560 0.821053 -0.050000
v 0.050560 0.663158 -0.050000
v 0.087410 0.663158 -0.050000
v 0.124259 0.663158 -0.050000
v 0.124259 0.763158 -0.050000
v 0.124259 0.863158 -0.050000
v 0.134788 0.863158 -0.050000
v 0.145317 0.863158 -0.050000
v 0.145317 0.873684 -0.050000
v 0.145317 0.884211 -0.050000
v 0.155845 0.884211 -0.050000
v 0.166374 0.884211 -0.050000
v 0.166374 0.873684 -0.050000
v 0.166374 0.863158 -0.050000
v 0.176902 0.863158 -0.050000
v 0.187431 0.863158 -0.050000
v 0.187431 0.752632 -0.050000
v 0.187431 0.642105 -0.050000
v 0.176902 0.642105 -0.050000
v 0.166374 0.642105 -0.050000
v 0.166374 0.631579 -0.050000
v 0.166374 0.621053 -0.050000
v 0.155845 0.621053 -0.050000
v 0.145317 0.621053 -0.050000
v 0.145317 0.610526 -0.050000
v 0.145317 0.600000 -0.050000
v 0.097938 0.600000 -0.050000
v 0.050560 0.600000 -0.050000
v 0.050560 0.300000 -0.050000
v 0.050560 0.000000 -0.050000
v -0.002083 0.000000 -0.050000
v -0.054726 0.000000 -0.050000
v -0.117897 0.663158 0.000000
v -0.117897 0.663158 0.000000
v -0.107368 0.663158 0.000000
v -0.170540 0.368421 0.000000
v -0.170540 0.378947 0.000000
v -0.170540 0.378947 0.000000
v 0.155845 0.621053 0.000000
v 0.145317 0.621053 0.000000
v 0.145317 0.621053 0.000000
v 0.176902 0.642105 0.000000
v 0.166374 0.642105 0.000000
v 0.166374 0.642105 0.000000
v -0.181068 0.378947 0.000000
v -0.191597 0.378947 0.000000
v -0.191597 0.378947 0.000000
v 0.145317 0.863158 0.000000
v 0.145317 0.863158 0.000000
v 0.145317 0.873684 0.000000
v -0.096840 0.400000 0.000000
v -0.096840 0.400000 0.000000
v -0.075783 0.400000 0.000000
v -0.117897 0.663158 -0.050000
v -0.117897 0.663158 -0.050000
v -0.107368 0.663158 -0.050000
v -0.033669 0.989474 0.000000
v -0.033669 1.000000 0.000000
v -0.033669 1.000000 0.000000
v 0.124259 0.863158 0.000000
v 0.124259 0.863158 0.000000
v 0.134788 0.863158 0.000000
v -0.170540 0.673684 0.000000
v -0.170540 0.684211 0.000000
v -0.170540 0.684211 0.000000
v -0.002083 1.000000 0.000000
v 0.029503 1.000000 0.000000
v 0.029503 1.000000 0.000000
v -0.144218 0.684211 0.000000
v -0.117897 0.684211 0.000000
v -0.117897 0.684211 0.000000
v 0.050560 0.978947 0.000000
v 0.050560 0.978947 0.000000
v 0.050560 0.821053 0.000000
v -0.117897 0.326316 0.000000
v -0.117897 0.336842 0.000000
v -0.117897 0.336842 0.000000
v 0.050560 0.600000 0.000000
v 0.050560 0.600000 0.000000
v 0.050560 0.300000 0.000000
v 0.029503 0.978947 0.000000
v 0.029503 0.978947 0.000000
v 0.040031 0.978947 0.000000
v -0.054726 0.400000 0.000000
v -0.054726 0.400000 0.000000
v -0.054726 0.689474 0.000000
v -0.044197 0.978947 0.000000
v -0.033669 0.978947 0.000000
v -0.033669 0.978947 0.000000
v 0.050560 0.000000 0.000000
v 0.050560 0.000000 0.000000
v -0.002083 0.000000 0.000000
v -0.128425 0.336842 0.000000
v -0.138954 0.336842 0.000000
v -0.138954 0.336842 0.000000
v 0.187431 0.863158 0.000000
v 0.187431 0.863158 0.000000
v 0.187431 0.752632 0.000000
v 0.166374 0.631579 0.000000
v 0.166374 0.621053 0.000000
v 0.166374 0.621053 0.000000
v -0.181068 0.663158 0.000000
v -0.170540 0.663158 0.000000
v -0.170540 0.663158 0.000000
v 0.166374 0.863158 0.000000
v 0.166374 0.863158 0.000000
v 0.176902 0.863158 0.000000
v 0.050560 0.663158 0.000000
v 0.050560 0.663158 0.000000
v 0.087410 0.663158 0.000000
v -0.170540 0.357895 0.000000
v -0.170540 0.357895 0.000000
v -0.086311 0.315789 0.000000
v -0.117897 0.315789 0.000000
v -0.117897 0.315789 0.000000
v 0.145317 0.600000 0.000000
v 0.145317 0.600000 0.000000
v 0.097938 0.600000 0.000000
v -0.138954 0.357895 0.000000
v -0.138954 0.357895 0.000000
v -0.154747 0.357895 0.000000
v -0.054726 0.978947 0.000000
v -0.054726 0.978947 0.000000
v 0.187431 0.642105 0.000000
v 0.187431 0.642105 0.000000
v -0.191597 0.521053 0.000000
v -0.191597 0.663158 0.000000
v -0.191597 0.663158 0.000000
v -0.096840 0.663158 0.000000
v -0.096840 0.663158 0.000000
v 0.124259 0.663158 0.000000
v 0.124259 0.663158 0.000000
v 0.124259 0.763158 0.000000
v 0.145317 0.884211 0.000000
v 0.145317 0.884211 0.000000
v -0.054726 0.157895 0.000000
v -0.054726 0.315789 0.000000
v -0.054726 0.315789 0.000000
v 0.145317 0.610526 0.000000
v -0.054726 0.000000 0.000000
v -0.054726 0.000000 0.000000
v 0.155845 0.884211 0.000000
v 0.166374 0.884211 0.000000
v 0.166374 0.884211 0.000000
v -0.117897 0.673684 0.000000
v 0.029503 0.989474 0.000000
v -0.096840 0.531579 0.000000
v -0.138954 0.347368 0.000000
v 0.166374 0.873684 0.000000
v -0.170540 0.368421 -0.050000
v -0.170540 0.378947 -0.050000
v -0.170540 0.378947 -0.050000
v 0.155845 0.621053 -0.050000
v 0.145317 0.621053 -0.050000
v 0.145317 0.621053 -0.050000
v 0.176902 0.642105 -0.050000
v 0.166374 0.642105 -0.050000
v 0.166374 0.642105 -0.050000
v -0.181068 0.378947 -0.050000
v -0.191597 0.378947 -0.050000
v -0.191597 0.378947 -0.050000
v 0.145317 0.863158 -0.050000
v 0.145317 0.863158 -0.050000
v 0.145317 0.873684 -0.050000
v -0.096840 0.400000 -0.050000
v -0.096840 0.400000 -0.050000
v -0.075783 0.400000 -0.050000
v -0.033669 0.989474 -0.050000
v -0.033669 1.000000 -0.050000
v -0.033669 1.000000 -0.050000
v 0.124259 0.863158 -0.050000
v 0.124259 0.863158 -0.050000
v 0.134788 0.863158 -0.050000
v -0.170540 0.673684 -0.050000
v -0.170540 0.684211 -0.050000
v -0.170540 0.684211 -0.050000
v -0.002083 1.000000 -0.050000
v 0.029503 1.000000 -0.050000
v 0.029503 1.000000 -0.050000
v -0.144218 0.684211 -0.050000
v -0.117897 0.684211 -0.050000
v -0.117897 0.684211 -0.050000
v 0.050560 0.978947 -0.050000
v 0.050560 0.978947 -0.050000
v 0.050560 0.821053 -0.050000
v -0.117897 0.326316 -0.050000
v -0.117897 0.336842 -0.050000
v -0.117897 0.336842 -0.050000
v 0.050560 0.600000 -0.050000
v 0.050560 0.600000 -0.050000
v 0.050560 0.300000 -0.050000
v 0.029503 0.978947 -0.050000
v 0.029503 0.978947 -0.050000
v 0.040031 0.978947 -0.050000
v -0.054726 0.400000 -0.050000
v -0.054726 0.400000 -0.050000
v -0.054726 0.689474 -0.050000
v -0.044197 0.978947 -0.050000
v -0.033669 0.978947 -0.050000
v -0.033669 0.978947 -0.050000
v 0.050560 0.000000 -0.050000
v 0.050560 0.000000 -0.050000
v -0.002083 0.000000 -0.050000
v -0.128425 0.336842 -0.050000
v -0.138954 0.336842 -0.050000
v -0.138954 0.336842 -0.050000
v 0.187431 0.863158 -0.050000
v 0.187431 0.863158 -0.050000
v 0.187431 0.752632 -0.050000
v 0.166374 0.631579 -0.050000
v 0.166374 0.621053 -0.050000
v 0.166374 0.621053 -0.050000
v -0.181068 0.663158 -0.050000
v -0.170540 0.663158 -0.050000
v -0.170540 0.663158 -0.050000
v 0.166374 0.863158 -0.050000
v 0.166374 0.863158 -0.050000
v 0.176902 0.863158 -0.050000
v 0.050560 0.663158 -0.050000
v 0.050560 0.663158 -0.050000
v 0.087410 0.663158 -0.050000
v -0.170540 0.357895 -0.050000
v -0.170540 0.357895 -0.050000
v -0.086311 0.315789 -0.050000
v -0.117897 0.315789 -0.050000
v -0.117897 0.315789 -0.050000
v 0.145317 0.600000 -0.050000
v 0.145317 0.600000 -0.050000
v 0.097938 0.600000 -0.050000
v -0.138954 0.357895 -0.050000
v -0.138954 0.357895 -0.050000
v -0.154747 0.357895 -0.050000
v -0.054726 0.978947 -0.050000
v -0.054726 0.978947 -0.050000
v 0.187431 0.642105 -0.050000
v 0.187431 0.642105 -0.050000
v -0.191597 0.521053 -0.050000
v -0.191597 0.663158 -0.050000
v -0.191597 0.663158 -0.050000
v -0.096840 0.663158 -0.050000
v -0.096840 0.663158 -0.050000
v 0.124259 0.663158 -0.050000
v 0.124259 0.663158 -0.050000
v 0.124259 0.763158 -0.050000
v 0.145317 0.884211 -0.050000
v 0.145317 0.884211 -0.050000
v -0.054726 0.157895 -0.050000
v -0.054726 0.315789 -0.050000
v -0.054726 0.315789 -0.050000
v 0.145317 0.610526 -0.050000
v -0.054726 0.000000 -0.050000
v -0.054726 0.000000 -0.050000
v 0.155845 0.884211 -0.050000
v 0.166374 0.884211 -0.050000
v 0.166374 0.884211 -0.050000
v -0.117897 0.673684 -0.050000
v 0.029503 0.989474 -0.050000
v -0.096840 0.531579 -0.050000
v -0.138954 0.347368 -0.050000
v 0.166374 0.873684 -0.050000
vn 0.0000 0.0000 1.0000
vn 0.0000 0.0000 -1.0000
vn 0.0000 1.0000 0.0000
vn 1.0000 0.0000 0.0000
vn -1.0000 0.0000 0.0000
vn 0.0000 -1.0000 0.0000
usemtl SVGMat.004
s 1
f 177//1 186//1 178//1
f 267//1 249//1 155//1
f 238//1 259//1 160//1
f 159//1 220//1 219//1
f 266//1 186//1 201//1
f 206//1 194//1 242//1
f 267//1 153//1 223//1
f 189//1 223//1 153//1
f 238//1 236//1 259//1
f 194//1 201//1 208//1
f 194//1 203//1 201//1
f 170//1 262//1 254//1
f 170//1 269//1 262//1
f 194//1 208//1 207//1
f 168//1 269//1 170//1
f 168//1 225//1 269//1
f 253//1 182//1 180//1
f 253//1 168//1 182//1
f 253//1 225//1 168//1
f 253//1 218//1 225//1
f 157//1 171//1 246//1
f 157//1 156//1 241//1
f 206//1 228//1 194//1
f 251//1 218//1 253//1
f 251//1 163//1 218//1
f 204//1 198//1 206//1
f 183//1 189//1 184//1
f 267//1 155//1 153//1
f 196//1 195//1 233//1
f 194//1 207//1 242//1
f 265//1 189//1 153//1
f 246//1 222//1 247//1
f 246//1 223//1 222//1
f 246//1 267//1 223//1
f 218//1 227//1 225//1
f 269//1 263//1 262//1
f 186//1 208//1 201//1
f 212//1 210//1 256//1
f 198//1 230//1 228//1
f 198//1 238//1 230//1
f 265//1 190//1 189//1
f 218//1 216//1 227//1
f 194//1 192//1 203//1
f 244//1 218//1 162//1
f 160//1 163//1 251//1
f 288//2 289//2 297//2
f 238//1 251//1 230//1
f 204//1 173//1 257//1
f 238//1 160//1 251//1
f 204//1 200//1 198//1
f 266//1 187//1 186//1
f 246//1 171//1 267//1
f 166//1 165//1 246//1
f 171//1 157//1 239//1
f 165//1 157//1 246//1
f 173//1 233//1 257//1
f 173//1 171//1 196//1
f 173//1 196//1 233//1
f 218//1 163//1 162//1
f 231//1 241//1 156//1
f 239//1 157//1 241//1
f 171//1 239//1 196//1
f 159//1 219//1 163//1
f 214//1 213//1 268//1
f 196//1 239//1 213//1
f 239//1 268//1 213//1
f 186//1 177//1 208//1
f 234//1 233//1 195//1
f 189//1 183//1 223//1
f 257//1 200//1 204//1
f 256//1 200//1 257//1
f 256//1 210//1 200//1
f 260//1 212//1 256//1
f 160//1 159//1 163//1
f 198//1 228//1 206//1
f 378//2 176//2 360//2
f 349//2 274//2 370//2
f 273//2 330//2 331//2
f 377//2 312//2 297//2
f 317//2 353//2 305//2
f 378//2 334//2 174//2
f 300//2 174//2 334//2
f 349//2 370//2 347//2
f 305//2 319//2 312//2
f 305//2 312//2 314//2
f 284//2 365//2 373//2
f 284//2 373//2 380//2
f 305//2 318//2 319//2
f 282//2 284//2 380//2
f 282//2 380//2 336//2
f 364//2 291//2 293//2
f 364//2 293//2 282//2
f 364//2 282//2 336//2
f 364//2 336//2 329//2
f 271//2 357//2 285//2
f 271//2 352//2 270//2
f 317//2 305//2 339//2
f 362//2 364//2 329//2
f 362//2 329//2 277//2
f 315//2 317//2 309//2
f 294//2 295//2 300//2
f 378//2 174//2 176//2
f 307//2 344//2 306//2
f 305//2 353//2 318//2
f 376//2 174//2 300//2
f 357//2 358//2 333//2
f 357//2 333//2 334//2
f 357//2 334//2 378//2
f 329//2 336//2 338//2
f 380//2 373//2 374//2
f 297//2 312//2 319//2
f 323//2 367//2 321//2
f 309//2 339//2 341//2
f 309//2 341//2 349//2
f 376//2 300//2 301//2
f 329//2 338//2 327//2
f 305//2 314//2 303//2
f 355//2 276//2 329//2
f 274//2 362//2 277//2
f 349//2 341//2 362//2
f 315//2 368//2 287//2
f 349//2 362//2 274//2
f 315//2 309//2 311//2
f 377//2 297//2 298//2
f 357//2 378//2 285//2
f 280//2 357//2 279//2
f 285//2 350//2 271//2
f 279//2 357//2 271//2
f 287//2 368//2 344//2
f 287//2 307//2 285//2
f 287//2 344//2 307//2
f 329//2 276//2 277//2
f 342//2 270//2 352//2
f 350//2 352//2 271//2
f 285//2 307//2 350//2
f 273//2 277//2 330//2
f 325//2 379//2 324//2
f 307//2 324//2 350//2
f 350//2 324//2 379//2
f 297//2 319//2 288//2
f 345//2 306//2 344//2
f 300//2 334//2 294//2
f 368//2 315//2 311//2
f 367//2 368//2 311//2
f 367//2 311//2 321//2
f 371//2 367//2 323//2
f 274//2 277//2 273//2
f 309//2 317//2 339//2
f 250//3 361//3 103//3 27//3
f 61//4 137//4 328//4 217//4
f 57//4 133//4 375//4 264//4
f 49//5 125//5 363//5 252//5
f 237//4 348//4 145//4 69//4
f 172//4 286//4 105//4 29//4
f 221//4 332//4 141//4 65//4
f 245//4 356//4 137//4 61//4
f 19//3 95//3 359//3 248//3
f 15//6 91//6 272//6 158//6
f 224//3 335//3 95//3 19//3
f 179//5 290//5 113//5 37//5
f 202//4 313//4 117//4 41//4
f 25//4 101//4 302//4 191//4
f 255//5 366//5 129//5 53//5
f 193//3 304//3 119//3 43//3
f 258//5 369//5 77//5 1//5
f 51//3 127//3 292//3 181//3
f 1//5 77//5 372//5 261//5
f 69//4 145//4 275//4 161//4
f 185//5 296//5 97//5 21//5
f 55//3 131//3 130//3 54//3
f 59//3 135//3 337//3 226//3
f 5//5 81//5 346//5 235//5
f 205//3 316//3 107//3 31//3
f 37//5 113//5 320//5 209//5
f 39//3 115//3 114//3 38//3
f 47//3 123//3 340//3 229//3
f 188//3 299//3 115//3 39//3
f 211//4 322//4 149//4 73//4
f 76//6 152//6 151//6 75//6
f 13//5 89//5 343//5 232//5
f 50//5 126//5 125//5 49//5
f 56//3 132//3 131//3 55//3
f 24//3 100//3 99//3 23//3
f 3//6 79//6 78//6 2//6
f 27//3 103//3 175//3 154//3
f 65//4 141//4 278//4 164//4
f 4//6 80//6 79//6 3//6
f 45//4 121//4 120//4 44//4
f 58//4 134//4 133//4 57//4
f 14//5 90//5 89//5 13//5
f 35//3 111//3 354//3 243//3
f 71//6 147//6 146//6 70//6
f 9//5 85//5 326//5 215//5
f 11//6 87//6 351//6 240//6
f 197//5 308//5 81//5 5//5
f 46//4 122//4 121//4 45//4
f 60//3 136//3 135//3 59//3
f 73//4 149//4 310//4 199//4
f 68//6 144//6 143//6 67//6
f 23//3 99//3 98//3 22//3
f 34//5 110//5 109//5 33//5
f 10//5 86//5 85//5 9//5
f 67//6 143//6 142//6 66//6
f 26//4 102//4 101//4 25//4
f 64//6 140//6 139//6 63//6
f 21//5 97//5 96//5 20//5
f 17//5 93//5 281//5 167//5
f 63//6 139//6 138//6 62//6
f 43//3 119//3 118//3 42//3
f 72//6 148//6 147//6 71//6
f 16//6 92//6 91//6 15//6
f 169//3 283//3 127//3 51//3
f 18//5 94//5 93//5 17//5
f 33//5 109//5 108//5 32//5
f 53//5 129//5 128//5 52//5
f 12//6 88//6 87//6 11//6
f 41//4 117//4 116//4 40//4
f 36//3 112//3 111//3 35//3
f 7//6 83//6 82//6 6//6
f 75//6 151//6 150//6 74//6
f 48//3 124//3 123//3 47//3
f 8//6 84//6 83//6 7//6
f 29//4 105//4 104//4 28//4
f 31//3 107//3 106//3 30//3
