# Blender v2.79 (sub 0) OBJ File: 'svg-extruder2.blend'
# www.blender.org
mtllib cactus-4.mtl
o Curve_CUpath4151
v -0.099446 0.010101 0.000000
v -0.099446 0.020202 0.000000
v -0.079240 0.020202 0.000000
v -0.059033 0.020202 0.000000
v -0.059033 0.171717 0.000000
v -0.059033 0.323232 0.000000
v -0.104498 0.323232 0.000000
v -0.149962 0.323232 0.000000
v -0.149962 0.333333 0.000000
v -0.149962 0.343434 0.000000
v -0.160065 0.343434 0.000000
v -0.170168 0.343434 0.000000
v -0.170168 0.353535 0.000000
v -0.170168 0.363636 0.000000
v -0.180271 0.363636 0.000000
v -0.190374 0.363636 0.000000
v -0.190374 0.373737 0.000000
v -0.190374 0.383838 0.000000
v -0.200478 0.383838 0.000000
v -0.210581 0.383838 0.000000
v -0.210581 0.393939 0.000000
v -0.210581 0.404040 0.000000
v -0.220684 0.404040 0.000000
v -0.230787 0.404040 0.000000
v -0.230787 0.565657 0.000000
v -0.230787 0.727273 0.000000
v -0.220684 0.727273 0.000000
v -0.210581 0.727273 0.000000
v -0.210581 0.737374 0.000000
v -0.210581 0.747475 0.000000
v -0.180271 0.747475 0.000000
v -0.149962 0.747475 0.000000
v -0.149962 0.737374 0.000000
v -0.149962 0.727273 0.000000
v -0.134807 0.727273 0.000000
v -0.119652 0.727273 0.000000
v -0.119652 0.575758 0.000000
v -0.119652 0.424242 0.000000
v -0.089343 0.424242 0.000000
v -0.059033 0.424242 0.000000
v -0.059033 0.702020 0.000000
v -0.059033 0.979798 0.000000
v -0.048930 0.979798 0.000000
v -0.038827 0.979798 0.000000
v -0.038827 0.989899 0.000000
v -0.038827 1.000000 0.000000
v 0.011689 1.000000 0.000000
v 0.062204 1.000000 0.000000
v 0.062204 0.989899 0.000000
v 0.062204 0.979798 0.000000
v 0.072307 0.979798 0.000000
v 0.082411 0.979798 0.000000
v 0.082411 0.702020 0.000000
v 0.082411 0.424242 0.000000
v 0.117772 0.424242 0.000000
v 0.153132 0.424242 0.000000
v 0.153132 0.585859 0.000000
v 0.153132 0.747475 0.000000
v 0.163236 0.747475 0.000000
v 0.173339 0.747475 0.000000
v 0.173339 0.757576 0.000000
v 0.173339 0.767677 0.000000
v 0.193545 0.767677 0.000000
v 0.213751 0.767677 0.000000
v 0.213751 0.757576 0.000000
v 0.213751 0.747475 0.000000
v 0.223855 0.747475 0.000000
v 0.233958 0.747475 0.000000
v 0.233958 0.585859 0.000000
v 0.233958 0.424242 0.000000
v 0.223855 0.424242 0.000000
v 0.213751 0.424242 0.000000
v 0.213751 0.414141 0.000000
v 0.213751 0.404040 0.000000
v 0.203648 0.404040 0.000000
v 0.193545 0.404040 0.000000
v 0.193545 0.393939 0.000000
v 0.193545 0.383838 0.000000
v 0.183442 0.383838 0.000000
v 0.173339 0.383838 0.000000
v 0.173339 0.373737 0.000000
v 0.173339 0.363636 0.000000
v 0.127875 0.363636 0.000000
v 0.082411 0.363636 0.000000
v 0.082411 0.181818 0.000000
v 0.082411 0.000000 0.000000
v -0.008518 0.000000 0.000000
v -0.099446 0.000000 0.000000
v -0.099446 0.010101 -0.050000
v -0.099446 0.020202 -0.050000
v -0.079240 0.020202 -0.050000
v -0.059033 0.020202 -0.050000
v -0.059033 0.171717 -0.050000
v -0.059033 0.323232 -0.050000
v -0.104498 0.323232 -0.050000
v -0.149962 0.323232 -0.050000
v -0.149962 0.333333 -0.050000
v -0.149962 0.343434 -0.050000
v -0.160065 0.343434 -0.050000
v -0.170168 0.343434 -0.050000
v -0.170168 0.353535 -0.050000
v -0.170168 0.363636 -0.050000
v -0.180271 0.363636 -0.050000
v -0.190374 0.363636 -0.050000
v -0.190374 0.373737 -0.050000
v -0.190374 0.383838 -0.050000
v -0.200478 0.383838 -0.050000
v -0.210581 0.383838 -0.050000
v -0.210581 0.393939 -0.050000
v -0.210581 0.404040 -0.050000
v -0.220684 0.404040 -0.050000
v -0.230787 0.404040 -0.050000
v -0.230787 0.565657 -0.050000
v -0.230787 0.727273 -0.050000
v -0.220684 0.727273 -0.050000
v -0.210581 0.727273 -0.050000
v -0.210581 0.737374 -0.050000
v -0.210581 0.747475 -0.050000
v -0.180271 0.747475 -0.050000
v -0.149962 0.747475 -0.050000
v -0.149962 0.737374 -0.050000
v -0.149962 0.727273 -0.050000
v -0.134807 0.727273 -0.050000
v -0.119652 0.727273 -0.050000
v -0.119652 0.575758 -0.050000
v -0.119652 0.424242 -0.050000
v -0.089343 0.424242 -0.050000
v -0.059033 0.424242 -0.050000
v -0.059033 0.702020 -0.050000
v -0.059033 0.979798 -0.050000
v -0.048930 0.979798 -0.050000
v -0.038827 0.979798 -0.050000
v -0.038827 0.989899 -0.050000
v -0.038827 1.000000 -0.050000
v 0.011689 1.000000 -0.050000
v 0.062204 1.000000 -0.050000
v 0.062204 0.989899 -0.050000
v 0.062204 0.979798 -0.050000
v 0.072307 0.979798 -0.050000
v 0.082411 0.979798 -0.050000
v 0.082411 0.702020 -0.050000
v 0.082411 0.424242 -0.050000
v 0.117772 0.424242 -0.050000
v 0.153132 0.424242 -0.050000
v 0.153132 0.585859 -0.050000
v 0.153132 0.747475 -0.050000
v 0.163236 0.747475 -0.050000
v 0.173339 0.747475 -0.050000
v 0.173339 0.757576 -0.050000
v 0.173339 0.767677 -0.050000
v 0.193545 0.767677 -0.050000
v 0.213751 0.767677 -0.050000
v 0.213751 0.757576 -0.050000
v 0.213751 0.747475 -0.050000
v 0.223855 0.747475 -0.050000
v 0.233958 0.747475 -0.050000
v 0.233958 0.585859 -0.050000
v 0.233958 0.424242 -0.050000
v 0.223855 0.424242 -0.050000
v 0.213751 0.424242 -0.050000
v 0.213751 0.414141 -0.050000
v 0.213751 0.404040 -0.050000
v 0.203648 0.404040 -0.050000
v 0.193545 0.404040 -0.050000
v 0.193545 0.393939 -0.050000
v 0.193545 0.383838 -0.050000
v 0.183442 0.383838 -0.050000
v 0.173339 0.383838 -0.050000
v 0.173339 0.373737 -0.050000
v 0.173339 0.363636 -0.050000
v 0.127875 0.363636 -0.050000
v 0.082411 0.363636 -0.050000
v 0.082411 0.181818 -0.050000
v 0.082411 0.000000 -0.050000
v -0.008518 0.000000 -0.050000
v -0.099446 0.000000 -0.050000
v -0.230787 0.727273 0.000000
v -0.230787 0.727273 0.000000
v -0.220684 0.727273 0.000000
v -0.170168 0.353535 0.000000
v -0.170168 0.363636 0.000000
v -0.170168 0.363636 0.000000
v 0.223855 0.747475 0.000000
v 0.233958 0.747475 0.000000
v 0.233958 0.747475 0.000000
v 0.193545 0.767677 0.000000
v 0.213751 0.767677 0.000000
v 0.213751 0.767677 0.000000
v -0.180271 0.363636 0.000000
v -0.190374 0.363636 0.000000
v -0.190374 0.363636 0.000000
v -0.230787 0.727273 -0.050000
v -0.230787 0.727273 -0.050000
v -0.220684 0.727273 -0.050000
v 0.082411 0.979798 0.000000
v 0.082411 0.979798 0.000000
v 0.082411 0.702020 0.000000
v -0.119652 0.575758 0.000000
v -0.119652 0.424242 0.000000
v -0.119652 0.424242 0.000000
v -0.210581 0.747475 0.000000
v -0.210581 0.747475 0.000000
v -0.180271 0.747475 0.000000
v 0.062204 0.979798 0.000000
v 0.062204 0.979798 0.000000
v 0.072307 0.979798 0.000000
v -0.210581 0.393939 0.000000
v -0.210581 0.404040 0.000000
v -0.210581 0.404040 0.000000
v -0.089343 0.424242 0.000000
v -0.059033 0.424242 0.000000
v -0.059033 0.424242 0.000000
v 0.193545 0.383838 0.000000
v 0.193545 0.383838 0.000000
v 0.183442 0.383838 0.000000
v -0.220684 0.404040 0.000000
v -0.230787 0.404040 0.000000
v -0.230787 0.404040 0.000000
v -0.038827 0.979798 0.000000
v -0.038827 0.979798 0.000000
v -0.038827 0.989899 0.000000
v 0.173339 0.373737 0.000000
v 0.173339 0.363636 0.000000
v 0.173339 0.363636 0.000000
v -0.059033 0.171717 0.000000
v -0.059033 0.323232 0.000000
v -0.059033 0.323232 0.000000
v 0.213751 0.424242 0.000000
v 0.213751 0.424242 0.000000
v 0.213751 0.414141 0.000000
v -0.059033 0.979798 0.000000
v -0.059033 0.979798 0.000000
v -0.048930 0.979798 0.000000
v -0.134807 0.727273 0.000000
v -0.119652 0.727273 0.000000
v -0.119652 0.727273 0.000000
v -0.149962 0.747475 0.000000
v -0.149962 0.747475 0.000000
v -0.149962 0.737374 0.000000
v -0.104498 0.323232 0.000000
v -0.149962 0.323232 0.000000
v -0.149962 0.323232 0.000000
v 0.213751 0.404040 0.000000
v 0.213751 0.404040 0.000000
v 0.203648 0.404040 0.000000
v 0.173339 0.747475 0.000000
v 0.173339 0.747475 0.000000
v 0.173339 0.757576 0.000000
v 0.082411 0.000000 0.000000
v 0.082411 0.000000 0.000000
v -0.008518 0.000000 0.000000
v -0.099446 0.010101 0.000000
v -0.099446 0.000000 0.000000
v -0.099446 0.000000 0.000000
v -0.200478 0.383838 0.000000
v -0.210581 0.383838 0.000000
v -0.210581 0.383838 0.000000
v 0.213751 0.757576 0.000000
v 0.213751 0.747475 0.000000
v 0.213751 0.747475 0.000000
v 0.193545 0.404040 0.000000
v 0.193545 0.404040 0.000000
v 0.193545 0.393939 0.000000
v 0.153132 0.747475 0.000000
v 0.153132 0.747475 0.000000
v 0.163236 0.747475 0.000000
v -0.038827 1.000000 0.000000
v -0.038827 1.000000 0.000000
v 0.011689 1.000000 0.000000
v -0.170168 0.343434 0.000000
v -0.170168 0.343434 0.000000
v -0.079240 0.020202 0.000000
v -0.059033 0.020202 0.000000
v -0.059033 0.020202 0.000000
v 0.233958 0.424242 0.000000
v 0.233958 0.424242 0.000000
v 0.223855 0.424242 0.000000
v -0.149962 0.343434 0.000000
v -0.149962 0.343434 0.000000
v -0.160065 0.343434 0.000000
v -0.149962 0.727273 0.000000
v -0.149962 0.727273 0.000000
v 0.173339 0.767677 0.000000
v 0.173339 0.767677 0.000000
v 0.082411 0.363636 0.000000
v 0.082411 0.363636 0.000000
v 0.082411 0.181818 0.000000
v -0.190374 0.373737 0.000000
v -0.190374 0.383838 0.000000
v -0.190374 0.383838 0.000000
v -0.210581 0.727273 0.000000
v -0.210581 0.727273 0.000000
v 0.062204 1.000000 0.000000
v 0.062204 1.000000 0.000000
v 0.062204 0.989899 0.000000
v 0.082411 0.424242 0.000000
v 0.082411 0.424242 0.000000
v -0.099446 0.020202 0.000000
v -0.099446 0.020202 0.000000
v 0.233958 0.585859 0.000000
v 0.117772 0.424242 0.000000
v 0.153132 0.424242 0.000000
v 0.153132 0.424242 0.000000
v -0.230787 0.565657 0.000000
v -0.059033 0.702020 0.000000
v 0.173339 0.383838 0.000000
v 0.173339 0.383838 0.000000
v -0.210581 0.737374 0.000000
v 0.127875 0.363636 0.000000
v -0.149962 0.333333 0.000000
v 0.153132 0.585859 0.000000
v -0.170168 0.353535 -0.050000
v -0.170168 0.363636 -0.050000
v -0.170168 0.363636 -0.050000
v 0.223855 0.747475 -0.050000
v 0.233958 0.747475 -0.050000
v 0.233958 0.747475 -0.050000
v 0.193545 0.767677 -0.050000
v 0.213751 0.767677 -0.050000
v 0.213751 0.767677 -0.050000
v -0.180271 0.363636 -0.050000
v -0.190374 0.363636 -0.050000
v -0.190374 0.363636 -0.050000
v 0.082411 0.979798 -0.050000
v 0.082411 0.979798 -0.050000
v 0.082411 0.702020 -0.050000
v -0.119652 0.575758 -0.050000
v -0.119652 0.424242 -0.050000
v -0.119652 0.424242 -0.050000
v -0.210581 0.747475 -0.050000
v -0.210581 0.747475 -0.050000
v -0.180271 0.747475 -0.050000
v 0.062204 0.979798 -0.050000
v 0.062204 0.979798 -0.050000
v 0.072307 0.979798 -0.050000
v -0.210581 0.393939 -0.050000
v -0.210581 0.404040 -0.050000
v -0.210581 0.404040 -0.050000
v -0.089343 0.424242 -0.050000
v -0.059033 0.424242 -0.050000
v -0.059033 0.424242 -0.050000
v 0.193545 0.383838 -0.050000
v 0.193545 0.383838 -0.050000
v 0.183442 0.383838 -0.050000
v -0.220684 0.404040 -0.050000
v -0.230787 0.404040 -0.050000
v -0.230787 0.404040 -0.050000
v -0.038827 0.979798 -0.050000
v -0.038827 0.979798 -0.050000
v -0.038827 0.989899 -0.050000
v 0.173339 0.373737 -0.050000
v 0.173339 0.363636 -0.050000
v 0.173339 0.363636 -0.050000
v -0.059033 0.171717 -0.050000
v -0.059033 0.323232 -0.050000
v -0.059033 0.323232 -0.050000
v 0.213751 0.424242 -0.050000
v 0.213751 0.424242 -0.050000
v 0.213751 0.414141 -0.050000
v -0.059033 0.979798 -0.050000
v -0.059033 0.979798 -0.050000
v -0.048930 0.979798 -0.050000
v -0.134807 0.727273 -0.050000
v -0.119652 0.727273 -0.050000
v -0.119652 0.727273 -0.050000
v -0.149962 0.747475 -0.050000
v -0.149962 0.747475 -0.050000
v -0.149962 0.737374 -0.050000
v -0.104498 0.323232 -0.050000
v -0.149962 0.323232 -0.050000
v -0.149962 0.323232 -0.050000
v 0.213751 0.404040 -0.050000
v 0.213751 0.404040 -0.050000
v 0.203648 0.404040 -0.050000
v 0.173339 0.747475 -0.050000
v 0.173339 0.747475 -0.050000
v 0.173339 0.757576 -0.050000
v 0.082411 0.000000 -0.050000
v 0.082411 0.000000 -0.050000
v -0.008518 0.000000 -0.050000
v -0.099446 0.010101 -0.050000
v -0.099446 0.000000 -0.050000
v -0.099446 0.000000 -0.050000
v -0.200478 0.383838 -0.050000
v -0.210581 0.383838 -0.050000
v -0.210581 0.383838 -0.050000
v 0.213751 0.757576 -0.050000
v 0.213751 0.747475 -0.050000
v 0.213751 0.747475 -0.050000
v 0.193545 0.404040 -0.050000
v 0.193545 0.404040 -0.050000
v 0.193545 0.393939 -0.050000
v 0.153132 0.747475 -0.050000
v 0.153132 0.747475 -0.050000
v 0.163236 0.747475 -0.050000
v -0.038827 1.000000 -0.050000
v -0.038827 1.000000 -0.050000
v 0.011689 1.000000 -0.050000
v -0.170168 0.343434 -0.050000
v -0.170168 0.343434 -0.050000
v -0.079240 0.020202 -0.050000
v -0.059033 0.020202 -0.050000
v -0.059033 0.020202 -0.050000
v 0.233958 0.424242 -0.050000
v 0.233958 0.424242 -0.050000
v 0.223855 0.424242 -0.050000
v -0.149962 0.343434 -0.050000
v -0.149962 0.343434 -0.050000
v -0.160065 0.343434 -0.050000
v -0.149962 0.727273 -0.050000
v -0.149962 0.727273 -0.050000
v 0.173339 0.767677 -0.050000
v 0.173339 0.767677 -0.050000
v 0.082411 0.363636 -0.050000
v 0.082411 0.363636 -0.050000
v 0.082411 0.181818 -0.050000
v -0.190374 0.373737 -0.050000
v -0.190374 0.383838 -0.050000
v -0.190374 0.383838 -0.050000
v -0.210581 0.727273 -0.050000
v -0.210581 0.727273 -0.050000
v 0.062204 1.000000 -0.050000
v 0.062204 1.000000 -0.050000
v 0.062204 0.989899 -0.050000
v 0.082411 0.424242 -0.050000
v 0.082411 0.424242 -0.050000
v -0.099446 0.020202 -0.050000
v -0.099446 0.020202 -0.050000
v 0.233958 0.585859 -0.050000
v 0.117772 0.424242 -0.050000
v 0.153132 0.424242 -0.050000
v 0.153132 0.424242 -0.050000
v -0.230787 0.565657 -0.050000
v -0.059033 0.702020 -0.050000
v 0.173339 0.383838 -0.050000
v 0.173339 0.383838 -0.050000
v -0.210581 0.737374 -0.050000
v 0.127875 0.363636 -0.050000
v -0.149962 0.333333 -0.050000
v 0.153132 0.585859 -0.050000
vn 0.0000 0.0000 1.0000
vn 0.0000 0.0000 -1.0000
vn 0.0000 -1.0000 0.0000
vn 0.0000 1.0000 0.0000
vn 1.0000 0.0000 0.0000
vn -1.0000 0.0000 0.0000
usemtl SVGMat.003
s 1
f 221//1 269//1 267//1
f 211//1 210//1 226//1
f 269//1 219//1 204//1
f 258//1 187//1 186//1
f 295//1 269//1 204//1
f 305//1 233//1 231//1
f 305//1 219//1 233//1
f 305//1 204//1 219//1
f 305//1 197//1 204//1
f 186//1 246//1 259//1
f 300//1 184//1 183//1
f 248//1 186//1 283//1
f 197//1 206//1 204//1
f 300//1 183//1 259//1
f 301//1 296//1 285//1
f 258//1 186//1 259//1
f 308//1 203//1 201//1
f 203//1 291//1 281//1
f 198//1 235//1 234//1
f 311//1 266//1 264//1
f 311//1 246//1 266//1
f 311//1 259//1 246//1
f 311//1 300//1 259//1
f 300//1 228//1 277//1
f 186//1 248//1 246//1
f 228//1 300//1 311//1
f 239//1 203//1 281//1
f 304//1 179//1 177//1
f 304//1 291//1 179//1
f 304//1 198//1 291//1
f 289//1 288//1 189//1
f 203//1 308//1 291//1
f 269//1 221//1 219//1
f 211//1 197//1 305//1
f 211//1 296//1 197//1
f 302//1 228//1 311//1
f 253//1 273//1 272//1
f 304//1 199//1 198//1
f 217//1 216//1 304//1
f 199//1 208//1 289//1
f 216//1 208//1 304//1
f 208//1 199//1 304//1
f 199//1 278//1 240//1
f 198//1 234//1 281//1
f 199//1 181//1 278//1
f 302//1 301//1 309//1
f 285//1 211//1 226//1
f 275//1 300//1 277//1
f 350//2 396//2 398//2
f 181//1 289//1 189//1
f 207//1 255//1 208//1
f 256//1 255//1 207//1
f 296//1 211//1 285//1
f 309//1 301//1 285//1
f 243//1 230//1 245//1
f 255//1 289//1 208//1
f 181//1 180//1 280//1
f 198//1 281//1 291//1
f 261//1 245//1 228//1
f 190//1 189//1 288//1
f 306//1 215//1 261//1
f 245//1 230//1 228//1
f 213//1 263//1 215//1
f 210//1 199//1 240//1
f 261//1 302//1 306//1
f 210//1 240//1 226//1
f 199//1 289//1 181//1
f 295//1 293//1 269//1
f 306//1 302//1 309//1
f 215//1 263//1 261//1
f 226//1 287//1 285//1
f 223//1 222//1 309//1
f 270//1 280//1 180//1
f 278//1 181//1 280//1
f 309//1 222//1 306//1
f 310//1 240//1 278//1
f 241//1 240//1 310//1
f 239//1 237//1 203//1
f 225//1 287//1 226//1
f 225//1 251//1 287//1
f 273//1 251//1 225//1
f 252//1 272//1 298//1
f 252//1 253//1 272//1
f 197//1 195//1 206//1
f 273//1 253//1 251//1
f 251//1 249//1 287//1
f 302//1 261//1 228//1
f 340//2 355//2 339//2
f 398//2 333//2 348//2
f 387//2 318//2 319//2
f 424//2 333//2 398//2
f 434//2 360//2 362//2
f 434//2 362//2 348//2
f 434//2 348//2 333//2
f 434//2 333//2 326//2
f 318//2 388//2 375//2
f 429//2 315//2 316//2
f 377//2 412//2 318//2
f 326//2 333//2 335//2
f 429//2 388//2 315//2
f 430//2 414//2 425//2
f 387//2 388//2 318//2
f 437//2 330//2 332//2
f 332//2 410//2 420//2
f 327//2 363//2 364//2
f 440//2 393//2 395//2
f 440//2 395//2 375//2
f 440//2 375//2 388//2
f 440//2 388//2 429//2
f 429//2 406//2 357//2
f 318//2 375//2 377//2
f 357//2 440//2 429//2
f 368//2 410//2 332//2
f 433//2 192//2 194//2
f 433//2 194//2 420//2
f 433//2 420//2 327//2
f 418//2 321//2 417//2
f 332//2 420//2 437//2
f 398//2 348//2 350//2
f 340//2 434//2 326//2
f 340//2 326//2 425//2
f 431//2 440//2 357//2
f 382//2 401//2 402//2
f 433//2 327//2 328//2
f 346//2 433//2 345//2
f 328//2 418//2 337//2
f 345//2 433//2 337//2
f 337//2 433//2 328//2
f 328//2 369//2 407//2
f 327//2 410//2 363//2
f 328//2 407//2 313//2
f 431//2 438//2 430//2
f 414//2 355//2 340//2
f 404//2 406//2 429//2
f 313//2 321//2 418//2
f 336//2 337//2 384//2
f 385//2 336//2 384//2
f 425//2 414//2 340//2
f 438//2 414//2 430//2
f 372//2 374//2 359//2
f 384//2 337//2 418//2
f 313//2 409//2 312//2
f 327//2 420//2 410//2
f 390//2 357//2 374//2
f 322//2 417//2 321//2
f 435//2 390//2 344//2
f 374//2 357//2 359//2
f 342//2 344//2 392//2
f 339//2 369//2 328//2
f 390//2 435//2 431//2
f 339//2 355//2 369//2
f 328//2 313//2 418//2
f 424//2 398//2 422//2
f 435//2 438//2 431//2
f 344//2 390//2 392//2
f 355//2 414//2 416//2
f 352//2 438//2 351//2
f 399//2 312//2 409//2
f 407//2 409//2 313//2
f 438//2 435//2 351//2
f 439//2 407//2 369//2
f 370//2 439//2 369//2
f 368//2 332//2 366//2
f 354//2 355//2 416//2
f 354//2 416//2 380//2
f 402//2 354//2 380//2
f 381//2 427//2 401//2
f 381//2 401//2 382//2
f 326//2 335//2 324//2
f 402//2 380//2 382//2
f 380//2 416//2 378//2
f 431//2 357//2 390//2
f 23//3 111//3 338//3 209//3
f 63//4 151//4 413//4 284//4
f 212//4 341//4 127//4 39//4
f 244//5 373//5 161//5 73//5
f 257//3 386//3 107//3 19//3
f 205//5 334//5 137//5 49//5
f 178//6 193//6 113//6 25//6
f 260//5 389//5 153//5 65//5
f 17//6 105//6 323//6 191//6
f 85//5 173//5 415//5 286//5
f 3//4 91//4 428//4 299//4
f 290//6 419//6 105//6 17//6
f 265//6 394//6 145//6 57//6
f 79//3 167//3 343//3 214//3
f 250//5 379//5 173//5 85//5
f 218//3 347//3 111//3 23//3
f 35//4 123//4 411//4 282//4
f 196//4 325//4 139//4 51//4
f 77//5 165//5 391//5 262//5
f 45//6 133//6 349//6 220//6
f 59//4 147//4 146//4 58//4
f 268//6 397//6 133//6 45//6
f 9//6 97//6 371//6 242//6
f 224//5 353//5 169//5 81//5
f 307//3 436//3 167//3 79//3
f 27//4 115//4 114//4 26//4
f 47//4 135//4 134//4 46//4
f 279//6 408//6 97//6 9//6
f 227//6 356//6 93//6 5//6
f 182//6 314//6 101//6 13//6
f 41//6 129//6 128//6 40//6
f 292//4 421//4 115//4 27//4
f 13//6 101//6 400//6 271//6
f 73//5 161//5 358//5 229//5
f 247//4 376//4 147//4 59//4
f 49//5 137//5 423//5 294//5
f 21//6 109//6 108//6 20//6
f 185//4 317//4 155//4 67//4
f 7//3 95//3 94//3 6//3
f 15//3 103//3 102//3 14//3
f 72//3 160//3 159//3 71//3
f 67//4 155//4 154//4 66//4
f 188//4 320//4 151//4 63//4
f 297//5 426//5 141//5 53//5
f 274//4 403//4 91//4 3//4
f 12//3 100//3 99//3 11//3
f 2//6 90//6 89//6 1//6
f 84//3 172//3 171//3 83//3
f 78//5 166//5 165//5 77//5
f 16//3 104//3 103//3 15//3
f 71//3 159//3 405//3 276//3
f 43//4 131//4 361//4 232//4
f 81//5 169//5 168//5 80//5
f 69//5 157//5 156//5 68//5
f 29//6 117//6 116//6 28//6
f 19//3 107//3 106//3 18//3
f 53//5 141//5 140//5 52//5
f 39//4 127//4 329//4 200//4
f 48//4 136//4 135//4 47//4
f 236//4 365//4 123//4 35//4
f 38//5 126//5 125//5 37//5
f 202//6 331//6 117//6 29//6
f 33//5 121//5 367//5 238//5
f 42//6 130//6 129//6 41//6
f 31//4 119//4 118//4 30//4
f 76//3 164//3 163//3 75//3
f 57//6 145//6 432//6 303//6
f 70//5 158//5 157//5 69//5
f 8//3 96//3 95//3 7//3
f 55//4 143//4 142//4 54//4
f 25//6 113//6 112//6 24//6
f 56//4 144//4 143//4 55//4
f 75//3 163//3 162//3 74//3
f 51//4 139//4 138//4 50//4
f 44//4 132//4 131//4 43//4
f 61//6 149//6 148//6 60//6
f 83//3 171//3 170//3 82//3
f 65//5 153//5 152//5 64//5
f 11//3 99//3 98//3 10//3
f 62//6 150//6 149//6 61//6
f 5//6 93//6 92//6 4//6
f 22//6 110//6 109//6 21//6
f 34//5 122//5 121//5 33//5
f 87//3 175//3 174//3 86//3
f 37//5 125//5 124//5 36//5
f 1//6 89//6 383//6 254//6
f 88//3 176//3 175//3 87//3
f 32//4 120//4 119//4 31//4
