<?xml version="1.0" encoding="UTF-8" standalone="no"?>
<!-- Created with Inkscape (http://www.inkscape.org/) -->

<svg
   xmlns:dc="http://purl.org/dc/elements/1.1/"
   xmlns:cc="http://creativecommons.org/ns#"
   xmlns:rdf="http://www.w3.org/1999/02/22-rdf-syntax-ns#"
   xmlns:svg="http://www.w3.org/2000/svg"
   xmlns="http://www.w3.org/2000/svg"
   xmlns:sodipodi="http://sodipodi.sourceforge.net/DTD/sodipodi-0.dtd"
   xmlns:inkscape="http://www.inkscape.org/namespaces/inkscape"
   width="25.443369mm"
   height="55.598469mm"
   viewBox="0 0 90.15367 197.00246"
   id="svg4171"
   version="1.1"
   inkscape:version="0.91 r13725"
   sodipodi:docname="cactus-6.svg">
  <defs
     id="defs4173" />
  <sodipodi:namedview
     id="base"
     pagecolor="#ffffff"
     bordercolor="#666666"
     borderopacity="1.0"
     inkscape:pageopacity="0.0"
     inkscape:pageshadow="2"
     inkscape:zoom="0.35"
     inkscape:cx="-903.09527"
     inkscape:cy="131.07178"
     inkscape:document-units="px"
     inkscape:current-layer="svg4171"
     showgrid="false"
     fit-margin-top="0"
     fit-margin-left="0"
     fit-margin-right="0"
     fit-margin-bottom="0"
     inkscape:window-width="1366"
     inkscape:window-height="705"
     inkscape:window-x="-8"
     inkscape:window-y="-8"
     inkscape:window-maximized="1" />
  <metadata
     id="metadata4176">
    <rdf:RDF>
      <cc:Work
         rdf:about="">
        <dc:format>image/svg+xml</dc:format>
        <dc:type
           rdf:resource="http://purl.org/dc/dcmitype/StillImage" />
        <dc:title />
      </cc:Work>
    </rdf:RDF>
  </metadata>
  <path
     inkscape:connector-curvature="0"
     d="m 33.390246,161.9427 0,-35.05976 -6.67805,0 -6.67805,0 0,-3.33902 0,-3.33903 -3.33902,0 -3.33903,0 0,-3.33902 0,-3.33902 -3.33902,0 -3.3390302,0 0,-5.00854 0,-5.00854 -3.3390196,0 -3.3390300146975,0 0,-30.051217 0,-30.05122 3.3390300146975,0 3.3390196,0 0,-5.00854 0,-5.00853 3.3390302,0 3.33902,0 0,5.00853 0,5.00854 3.33903,0 3.33902,0 0,30.05122 0,30.051217 6.67805,0 6.67805,0 0,-48.415857 0,-48.4158493 3.33902,0 3.33903,0 0,-3.33903 0,-3.339020022834 3.33902,0 3.33903,0 0,3.339020022834 0,3.33903 3.33902,0 3.33903,0 0,48.4158493 0,48.415857 8.34756,0 8.34756,0 0,-30.051217 0,-30.05122 3.33902,0 3.33903,0 0,-5.00854 0,-5.00853 3.33902,0 3.33903,0 0,5.00853 0,5.00854 3.33902,0 3.33903,0 0,30.05122 0,30.051217 -3.33903,0 -3.33902,0 0,5.00854 0,5.00854 -3.33903,0 -3.33902,0 0,3.33902 0,3.33902 -11.68659,0 -11.68658,0 0,38.39879 0,38.39878 -10.01708,0 -10.01707,0 z"
     id="path4147" />
</svg>
